<?xml version="1.0" standalone="no"?>
<!DOCTYPE svg PUBLIC "-//W3C//DTD SVG 20010904//EN"
 "http://www.w3.org/TR/2001/REC-SVG-20010904/DTD/svg10.dtd">
<svg version="1.0" xmlns="http://www.w3.org/2000/svg"
 width="700.000000pt" height="700.000000pt" viewBox="0 0 700.000000 700.000000"
 preserveAspectRatio="xMidYMid meet">
<metadata>
Created by potrace 1.14, written by Peter Selinger 2001-2017
</metadata>
<g transform="translate(0.000000,700.000000) scale(0.100000,-0.100000)"
fill="#000000" stroke="none">
<path d="M6945 6987 c-11 -8 -40 -25 -65 -39 -25 -14 -259 -149 -520 -300
-261 -151 -549 -318 -640 -370 -91 -53 -322 -187 -515 -298 -192 -112 -451
-261 -575 -333 -124 -71 -297 -171 -385 -222 -88 -51 -176 -102 -195 -114 -19
-11 -53 -30 -75 -42 -94 -50 -125 -74 -122 -94 1 -14 63 -54 217 -143 293
-170 495 -286 755 -437 121 -70 235 -136 252 -146 18 -10 119 -69 225 -130
106 -62 202 -117 213 -123 11 -6 93 -54 183 -106 90 -52 187 -108 216 -125 29
-16 119 -68 200 -115 81 -47 161 -93 179 -104 60 -34 432 -251 452 -263 11 -6
34 -18 50 -26 17 -8 64 -35 105 -60 55 -34 78 -43 87 -35 11 8 13 356 11 1822
-3 1600 -5 1811 -18 1814 -8 1 -24 -4 -35 -11z"/>
<path d="M19 6608 c-19 -7 -19 -31 -19 -1426 0 -1089 3 -1421 12 -1430 9 -9
339 -12 1425 -12 1393 0 1414 0 1421 20 10 26 9 2836 -1 2846 -10 10 -2811 12
-2838 2z"/>
<path d="M1792 2845 c-20 -25 -48 -155 -67 -315 -12 -103 -13 -429 -1 -500 3
-19 11 -69 17 -110 40 -268 163 -603 303 -825 46 -72 112 -171 127 -190 156
-192 280 -316 425 -426 54 -41 114 -84 132 -94 17 -11 32 -23 32 -27 0 -4 4
-8 9 -8 4 0 48 -23 97 -51 180 -104 474 -215 644 -244 19 -3 51 -10 70 -15 19
-5 62 -12 95 -15 33 -4 71 -9 85 -11 14 -3 97 -6 185 -8 227 -4 427 19 625 73
41 12 82 23 90 25 92 25 284 106 400 168 361 194 678 499 882 848 118 201 238
498 224 554 -5 20 -21 27 -103 50 -111 31 -572 156 -708 191 -87 23 -689 186
-885 239 -52 15 -131 36 -175 47 -44 12 -100 27 -125 34 -25 7 -81 22 -125 34
-75 20 -166 44 -615 166 -96 26 -182 48 -191 50 -9 2 -47 12 -85 23 -38 11
-190 52 -339 92 -148 40 -360 97 -470 127 -110 30 -275 74 -367 98 l-168 43
-18 -23z"/>
</g>
</svg>
