<svg xmlns="http://www.w3.org/2000/svg" fill="none" viewBox="0 0 81 81"><g fill="#E44126" clip-path="url(#a)"><path d="M70.938 61.257a.57.57 0 0 1 .398.697c-3.978 13.73-18.194 21.813-32.03 18.089-13.834-3.717-22.116-17.847-18.724-31.735a.56.56 0 0 1 .687-.406l49.669 13.355ZM44.672 21.394l35.772 20.718c.219.125.5-.032.5-.29V.386a.333.333 0 0 0-.5-.29L44.672 20.816c-.218.125-.218.446 0 .579ZM32.818 4.51H.4a.336.336 0 0 0-.336.336V37.37c0 .186.15.337.336.337h32.418c.186 0 .336-.15.336-.337V4.846a.336.336 0 0 0-.336-.337Z"/></g><defs><clipPath id="a"><path fill="#fff" d="M0 0h81v81H0z"/></clipPath></defs></svg>