<svg xmlns="http://www.w3.org/2000/svg" fill="none" viewBox="0 0 278 278"><g fill="#FD0" clip-path="url(#a)"><path d="M243.466 210.241c1.017.268 1.659 1.369 1.365 2.39-13.651 47.127-62.444 74.866-109.926 62.084-47.482-12.755-75.907-61.252-64.264-108.916.24-1.047 1.338-1.665 2.355-1.396l170.47 45.838ZM153.32 73.425l122.773 71.107c.749.429 1.713-.108 1.713-.994V1.325c0-.886-.937-1.423-1.713-.994L153.32 71.438c-.75.43-.75 1.53 0 1.987ZM112.636 15.476H1.372c-.636 0-1.151.517-1.151 1.155v111.628c0 .638.515 1.154 1.15 1.154h111.265c.636 0 1.151-.516 1.151-1.154V16.631c0-.638-.515-1.155-1.151-1.155Z"/></g><defs><clipPath id="a"><path fill="#fff" d="M0 0h278v278H0z"/></clipPath></defs></svg>