<?xml version="1.0" encoding="utf-8"?>
<!-- Generator: $$$/GeneralStr/196=Adobe Illustrator 27.6.0, SVG Export Plug-In . SVG Version: 6.00 Build 0)  -->
<svg version="1.1" id="Ebene_1" xmlns="http://www.w3.org/2000/svg" xmlns:xlink="http://www.w3.org/1999/xlink" x="0px" y="0px"
	 viewBox="0 0 138.3 137.9" style="enable-background:new 0 0 138.3 137.9;" xml:space="preserve">
<style type="text/css">
	.st0{fill:#E44126;}
	.st1{fill:#144E8B;}
	.st2{fill:#FFDD00;}
</style>
<path class="st0" d="M121.2,104.3c0.5,0.1,0.8,0.7,0.7,1.2c-6.8,23.4-31.1,37.2-54.8,30.8c-23.7-6.3-37.8-30.4-32-54.1
	c0.1-0.5,0.7-0.8,1.2-0.7C36.3,81.5,121.2,104.3,121.2,104.3z"/>
<path class="st1" d="M76.3,36.4l61.2,35.3c0.3,0.2,0.6,0.1,0.8-0.2c0-0.1,0.1-0.2,0.1-0.3V0.6c0-0.3-0.3-0.6-0.6-0.6
	c-0.1,0-0.2,0-0.3,0.1L76.3,35.4C75.9,35.6,75.9,36.1,76.3,36.4L76.3,36.4z"/>
<path class="st2" d="M56,7.6H0.6C0.3,7.6,0,7.9,0,8.2c0,0,0,0,0,0v55.4c0,0.3,0.3,0.6,0.6,0.6H56c0.3,0,0.6-0.3,0.6-0.6c0,0,0,0,0,0
	V8.2C56.6,7.9,56.3,7.6,56,7.6C56,7.6,56,7.6,56,7.6z"/>
</svg>
