<svg xmlns="http://www.w3.org/2000/svg" viewBox="0 0 637.3 637.3"><path fill="#f8fced" d="M-106.44-.2H966.45v637.5H-106.44V-.2Z"/><path fill="#c6d19b" d="M61.98 209.31c10.81 2.01 27.73-3.31 38.64-4.05 11.96-.81 24.51-1.04 35.95 3.07 6.61 2.37 27.79 14.14 33.68 6.85 1.09-1.35 1.58-3.06 2.03-4.74 8-29.93 8.16-60.74 13.26-91.1.13-.75.24-1.55-.09-2.22-.33-.66-1.03-1.05-1.68-1.4C150.46 98.16 115.24 84.6 80.2 71c-3.14-1.22-6.31-2.45-9.62-3.08-4.31-.83-8.73-.63-13.11-.47-47.14 1.74-94.46.12-141.63.52-2.27.02-4.9.22-6.2 2.07-.81 1.15-.87 2.66-.9 4.06-.29 13.46-.39 26.92-.28 40.38.05 5.98.21 11.96.26 17.95.03 4.11-1.51 10.27.99 13.84 1.34 1.91 2.11 3.4 4.29 4.22 40.49 15.2 147.79 58.79 148.01 58.83h-.03Z"/><path fill="#eaf2ce" d="M416.44 552.97c18.4-5.57 36.79-11.15 55.19-16.72 3.29-1 6.89-2.23 8.57-5.22 1.14-2.02 1.17-4.46 1.1-6.77-.44-14.83-3.98-29.37-9.56-43.08-5.61-13.77-14.33-26.03-14.95-41.4-.29-7.19 1.52-14.71 6.06-20.23l-1.67-6.99V308.08l-81.81-34.27-37.04 14.37h-31.51l-6.08 33.17-8.29-29.85-35.93 9.95 3.32 16.03-64.68-28.75-18.8 48.09-33.17 64.12 23.22 64.12 80.71 18.24-14.93 81.81 83.47 22.11 22.11-31.51 29.81 11.76c4.42-3.6 11.64-4.46 16.67-5.99 9.39-2.85 18.79-5.69 28.18-8.54v.03Z"/><path fill="#c6d19b" d="M657.74 640.25c-8.79-14.36-17.27-29.96-17.79-47.19-.41-13.69 4.3-26.93 8.01-40.11 4.8-17.04 5.67-31.09-1.25-47.37-7.11-16.76-17.21-32.59-25.68-48.71-2.29-4.35-3.52-8.79-6.58-12.63-2.28-2.86-3.74-5.93-6.24-8.58-9.11-9.65-15.19-21.03-19.86-33.41-4.4-11.66-18.41-34.78-18.41-34.78-1.29-8.95-1.54-19.82-3-28.76-2.98-18.26-8.12-31.25-13.44-48.97-1.04-3.46-6.68-15.2-8.8-18.12 0 0-25.3 5.96-36.12 8.69-9.53 2.41-14.74 10.87-20.14 18.3-5.39 7.4-26.05 17.25-27.47 18.24 1.29-.89 16.08 1.28 18.55 1.5 5.79.53 11.02-1.73 16.67-1.16 5.87.6 11.8 2.94 15.5 7.53 2.71 3.36 4.04 7.69 4.33 12 1.55 23.31-13.15 57.33-33.28 69.92-6.2 3.88-13.48 6.24-18.59 11.46-.46.46-.88.95-1.29 1.45-4.54 5.52-6.35 13.03-6.06 20.23.63 15.37 9.34 27.63 14.95 41.4 5.58 13.71 9.12 28.25 9.56 43.08.07 2.32.04 4.75-1.1 6.77-1.69 2.99-5.29 4.23-8.57 5.22-18.4 5.57-36.79 11.15-55.19 16.72-9.39 2.85-18.79 5.69-28.18 8.54-5.04 1.53-12.26 2.38-16.67 5.99-1.62 1.32-2.87 3-3.49 5.23-.24.86-.38 1.76-.4 2.65-.12 4.28 1.8 8.35 3.97 12.05 8.49 14.46 30.48 37.82 49.59 33.04 23.53-5.88 19.12 57.35 49.26 60.29 30.15 2.94 186.75-5.15 197.78-8.82 7.52-2.5-8.29-27.97-10.56-31.68h-.01Z"/><path fill="none" stroke="#fac773" stroke-linecap="round" stroke-linejoin="round" stroke-width="3" d="m383.22 248.76 13.76 47.05-15.09 47.05-26.18-1.78-181.09 103.86"/><path fill="none" stroke="#fac773" stroke-linecap="round" stroke-linejoin="round" stroke-width="3" d="m300.47 372.77 4.44 30.47 64.02-6.52 46.62-19.89 25.79-32.01 6.53-22.38-3.73-27.04-8.7-36.36-6.22-25.17-50.34 15.54-45.07 4.04-87.64 1.55-153.55-32.71-204.7-81.99"/><path fill="none" stroke="#fac773" stroke-linecap="round" stroke-linejoin="round" stroke-width="3" d="m143.94 427.57 31.26-41.29 27.73-50.14 18.87-105.59 17.7-99.1 5.9-51.91-8.26-51.91-34.8-3.54-23.6-31.86m1.88 457.46 80.11 18.76 2.79 53.74-7.36 34.73m58.06 20.79 16.22-35.24-5.07-37.77 34.99-11.92 93.03 20.03 26.5-2.5-9.27-33.72-35.99-9.66-30.67-18"/><path fill="none" stroke="#fac773" stroke-linecap="round" stroke-linejoin="round" stroke-width="3" d="m419.17 416.73 17.24 64.9 35.85 3.09m-141.82 57.75 23.58-19.52 6.34-30.17M342.1 533.6l18.51 3.8 110.28-16.48M262.95 509.2l63.13 2.33M204.3 332.67l25.53 12.08 54.95-10.53 8.96 3.51 37.02-5.06 24.95 8.41m-61.97-3.35 9.74 32.6"/><path fill="none" stroke="#fac773" stroke-linecap="round" stroke-linejoin="round" stroke-width="3" d="m243.28 343.28 5.26 12.38 26.88-3.51 5.07 2.73 18.32-1.56m-125.1 36.24 29.62 11.69m176.8-10.5 1.76-47.89m5.38-15.65 28.05-4.68 32.55-.09 5.64 9.06-6.62 69.75 12.08 19.49-2.07 23.1 13.72 32.75M231.2 303.04l-9.85 37.65m207.87-106.82 46.51 1.2 10.51 3.86 16.11 42.03-13.66 17.51-15.76 12.26-25.06 11.71m54.48-41.48 42.38-10.51 7.7-82.66m-7.7 82.66 12.61 30.47 9.45 35.73 3.16 30.82 14.01 23.11 12.25 28.37 15.77 21.02 33.62 60.94 32.92 79.86 25.57 63.39m-123.84-259-71.34-19.46M156.65 521.79 44.88 480.07l-31.29 20.86-38.75 108.04m162.44-93.14L85.12 655.17m-5.21-161.69-54.4 153.5"/><path fill="none" stroke="#fac773" stroke-linecap="round" stroke-linejoin="round" stroke-width="3" d="m.18 539.68 257.07 93.14 11.17-14.9 18.63-49.18M92.62 222.29l46.07 161.92-11.29 36.91M387.27 96.34l-2.74 47.49-16.84 43.96-14.72 26.13 30.25 34.84M246.17 255l3.92-27.18L280 225.3l9.6 28.93"/><path fill="none" stroke="#f7a116" stroke-linecap="round" stroke-linejoin="round" stroke-width="5" d="m-113.22 346.8 74.18 12.14 84.3 16.18 89.02 48.56 47.21 25.63-24.96 72.16 163.21 58.67 29.67 65.41M241.1 125.99l101.57-9.83L439.78 73"/><path fill="none" stroke="#f7a116" stroke-miterlimit="10" stroke-width="9" d="M375.3-19.37c2.21 24.26 15.44 64.14 50.73 84.73s94.85 46.32 108.08 75c13.23 28.68 20.59 67.64 45.59 89.7s138.23 100.73 153.67 113.23 53.31 74.26 172.78 82.35c119.48 8.09 102.57-3.68 102.57-3.68m-1119.78 28.66c3.68 40.44 11.76 63.97 13.23 88.97 1.47 25 13.97 47.79 35.29 54.41S82.3 650.61 85.98 651.35"/><path fill="#489ebc" d="m561.36-2.33-40.73 93.07s-11.4 29.71-19.08 36.61c-4.34 3.9-17.28 6.76-20.11 11.86-2.5 4.51-.43 15.55.52 20.62 3.16 16.95 23.2 64.97 23.2 64.97s17.53 30.07 20.11 41.25c.9 3.89 0 15.98 0 15.98v48.98s-4.93 44.04-4.64 58.78c.32 16.48 9.02 49.05 7.73 65.48-.93 11.88-12.94 33.97-12.89 45.89.04 10.2 10.36 29.03 11.34 39.19.43 4.38-1.55 17.53-1.55 17.53l9.8.52s.12-12.42-.52-16.5c-1.52-9.67-10.4-27.86-10.83-37.64s7.22-37.12 7.22-37.12.74-24.45 3.61-31.97c1.01-2.64 5.01-7.05 5.67-9.8.61-2.51-.52-10.31-.52-10.31s-4.79-22.73-4.64-30.42c.07-3.41 2.58-13.41 2.58-13.41s.18-24.08 1.55-31.97c.53-3.05 3.56-8.76 3.61-11.86.06-3.47-3.01-9.99-3.61-13.41-1.84-10.45-1.04-31.99-3.61-42.28-6.67-26.67-43.31-101.06-43.31-101.06l43.83-27.33s-1.33-19.23-2.58-25.52-7.22-24.23-7.22-24.23l40.74-95.9h-5.67Zm-389.55 174.7 4.66-18.27-77.75-14.33s-6.75 2.89-7.52 5.02c-1.08 2.98 3.58 12.18 3.58 12.18l77.03 15.41ZM-47.1 130.09l6.45-24 67 13.26s8.07 7.13 9.32 10.39c.83 2.18 1.26 7.36 0 9.32-2.13 3.3-14.33 6.45-14.33 6.45l-68.43-15.41Z"/><path fill="none" stroke="#489ebc" stroke-miterlimit="10" stroke-width="3" d="M529.94 555.06s-6.51 27.84-2.24 43.32 6.94 17.61 22.41 30.42 20.28 10.14 33.62 18.68"/><path d="M428.9 209.07s-.05-.02-.06-.06l-1.52-8.82s0-.05.04-.05h1.44s.05.02.06.05l.82 5.8.85-5.8s.03-.05.08-.05h1.16s.05.02.06.05l.84 5.8.83-5.8s.03-.05.06-.05h1.42s.06.02.05.05l-1.53 8.82s-.03.04-.06.06h-1.55s-.05-.02-.06-.06l-.66-4.61-.66 4.61s-.03.06-.06.06h-1.55Zm7 0s-.05-.02-.05-.06v-8.82s.03-.05.06-.05h4.12s.05.02.05.06v1.44s-.02.05-.05.05h-2.63v2h2.63s.05.02.05.05v1.45s0 .05-.04.05h-2.65v2.25h2.65s.05.02.05.06v1.46s-.02.05-.05.05h-4.15.01Zm5.33 0s-.06-.02-.06-.06v-8.82s.03-.05.06-.05h1.44s.05.02.05.05v8.82s0 .06-.04.06h-1.45Zm2.64 0s-.05-.02-.05-.06l.03-8.82s.02-.05.05-.05h1.57s.06.02.09.05l1.17 1.7 1.17-1.7s.05-.05.09-.05h1.58s.05.02.05.05l.03 8.82s-.02.06-.05.06h-1.45s-.05-.02-.05-.06v-6.55l-1.36 1.95-1.34-1.95v6.55s-.03.06-.06.06h-1.47Zm6.53-.06 1.59-8.82s.03-.05.06-.05h1.86s.05.02.06.05l1.53 8.82s0 .06-.05.06h-1.42s-.05-.02-.06-.06l-.14-.94h-1.75l-.14.94s-.03.06-.06.06h-1.42s-.05-.02-.05-.06h-.01Zm1.94-2.31h1.23l-.53-3.61-.08-.48-.05.48-.58 3.61h.01Zm4.05 2.37s-.05-.02-.05-.06l.03-8.82s.02-.05.05-.05h2.59c.46 0 .89.11 1.28.34s.7.53.93.91.35.81.35 1.29c0 .32-.05.6-.14.85s-.2.47-.33.64-.24.31-.35.39c.46.51.69 1.12.69 1.81V209s0 .06-.05.06h-1.45s-.05 0-.05-.04v-2.66c0-.31-.11-.57-.33-.8s-.49-.34-.8-.34h-.85V209s-.03.06-.06.06h-1.46Zm1.52-5.38h1.1c.27 0 .5-.1.71-.3s.31-.43.31-.72-.1-.51-.3-.71-.44-.3-.71-.3h-1.1v2.03Zm4.64 5.38s-.05-.02-.05-.06v-8.82s.03-.05.06-.05h4.12s.05.02.05.06v1.44s-.02.05-.05.05h-2.63v2h2.63s.05.02.05.05v1.45s0 .05-.04.05h-2.65v2.25h2.65s.05.02.05.06v1.46s-.02.05-.05.05h-4.15.01Zm5.29 0s-.05-.02-.05-.06l.03-8.82s.02-.05.05-.05h2.59c.46 0 .89.11 1.28.34s.7.53.93.91.35.81.35 1.29c0 .32-.05.6-.14.85s-.2.47-.33.64-.24.31-.35.39c.46.51.69 1.12.69 1.81V209s0 .06-.05.06h-1.45s-.05 0-.05-.04v-2.66c0-.31-.11-.57-.33-.8-.22-.23-.49-.34-.8-.34h-.85V209s-.03.06-.06.06h-1.46Zm1.52-5.38h1.1c.27 0 .5-.1.71-.3s.31-.43.31-.72-.1-.51-.3-.71c-.2-.2-.44-.3-.71-.3h-1.1v2.03Zm-40.46 9.28s-.05.02-.05.06l.02 8.81s.02.06.05.06h1.44s.05-.02.05-.06v-3.04l2.01 3.05s.05.05.09.05h1.48s.04-.02.03-.05l-2.22-3.54 2.49-5.29s0-.05-.06-.05h-1.57s-.07.02-.08.05l-1.73 3.78-.45-.71v-3.05s-.02-.06-.05-.06h-1.45Zm5.56 8.88 1.59-8.82s.03-.05.06-.05h1.86s.05.02.06.05l1.53 8.82s0 .06-.05.06h-1.42s-.05-.02-.06-.06l-.14-.94h-1.75l-.14.94s-.03.06-.06.06h-1.42s-.05-.02-.05-.06h-.01Zm1.94-2.31h1.23l-.53-3.61-.08-.48-.05.48-.58 3.61h.01Zm4.06 2.37s-.05-.02-.05-.06l.03-8.82s.02-.05.05-.05h2.46c.49 0 .92.12 1.31.35.38.23.69.55.91.93.22.38.33.81.33 1.26 0 .37-.08.71-.25 1.03-.17.32-.37.57-.6.77.25.25.44.53.58.86s.21.67.21 1.03c0 .5-.12.95-.36 1.36a2.68 2.68 0 0 1-2.33 1.35h-2.3Zm1.5-1.57h.8c.31 0 .57-.11.8-.34s.33-.5.33-.8-.11-.57-.33-.8-.49-.33-.8-.33h-.78v2.27h-.02Zm.01-3.83h.98c.3 0 .54-.11.72-.32s.28-.44.28-.69c0-.28-.1-.51-.3-.71a.982.982 0 0 0-.71-.3h-.98v2.01h.01Zm3.95 5.34 1.59-8.82s.03-.05.06-.05h1.86s.05.02.06.05l1.53 8.82s0 .06-.05.06h-1.42s-.05-.02-.06-.06l-.14-.94h-1.75l-.14.94s-.03.06-.06.06h-1.42s-.05-.02-.05-.06h-.01Zm1.94-2.31h1.23l-.53-3.61-.08-.48-.05.48-.58 3.61h.01Zm4.06 2.37s-.05-.02-.05-.06l.03-8.82s.02-.05.05-.05h2.59c.46 0 .89.11 1.28.34s.7.53.93.91.35.81.35 1.29c0 .32-.05.6-.14.85-.1.25-.2.47-.33.64s-.24.31-.35.39c.46.51.69 1.12.69 1.81v2.63s0 .06-.05.06h-1.45s-.05 0-.05-.04v-2.66c0-.31-.11-.57-.33-.8-.22-.23-.49-.34-.8-.34h-.85v3.78s-.03.06-.06.06h-1.46Zm1.52-5.38h1.1c.27 0 .5-.1.71-.3s.31-.43.31-.72-.1-.51-.3-.71-.44-.3-.71-.3h-1.1v2.03Zm4.63 5.38s-.05-.02-.05-.06v-8.82s.03-.05.06-.05h4.12s.05.02.05.06v1.44s-.02.05-.05.05h-2.63v2h2.63s.05.02.05.05v1.45s0 .05-.04.05h-2.65v2.25h2.65s.05.02.05.06v1.46s-.02.05-.05.05h-4.15.01Zm6.73 0s-.05-.02-.05-.06v-7.32h-1.67s-.06-.02-.06-.06v-1.44s.03-.05.06-.05h4.88s.06.02.06.05v1.44s-.02.06-.05.06h-1.68v7.32s0 .06-.04.06h-1.45Z"/><path d="M469.68 221.91s-.05-.02-.05-.06v-7.32h-1.67s-.06-.02-.06-.06v-1.44s.03-.05.06-.05h4.88s.06.02.06.05v1.44s-.02.06-.05.06h-1.68v7.32s0 .06-.04.06h-1.45Z"/><path fill="#e44126" d="M408.54 224.78c.13.03.21.17.17.3-1.73 5.96-7.93 9.47-13.96 7.86s-9.64-7.75-8.16-13.78c.03-.13.17-.21.3-.18l21.64 5.8h.01Z"/><path fill="#144e8b" d="m397.1 207.47 15.59 9c.1.05.22 0 .22-.13v-18c0-.11-.12-.18-.22-.13l-15.59 9c-.1.05-.1.19 0 .25Z"/><rect width="14.42" height="14.42" x="377.66" y="200.13" fill="#fd0" rx=".15" ry=".15"/><path fill="none" stroke="#e44126" stroke-miterlimit="10" d="m411.34 259.98 12.43-28.18"/><path fill="none" stroke="#144e8b" stroke-linecap="round" stroke-miterlimit="10" d="m355.66 323.48-9.93-7.41"/><path fill="none" stroke="#9aa6b2" stroke-linecap="round" stroke-miterlimit="10" d="m268.88 227.67.6-8.25M375.72 76.74l-5.07-5.07m-59.37 193.8 9.63.27"/><path fill="none" stroke="#144e8b" stroke-linecap="round" stroke-miterlimit="10" d="m252.53 419.19-12.77-6.23m130.97 40.51 4.64-4.59m108.15-75.75-3.87-7.93M362.08 559.04l-6.97-5.83"/><path fill="#144e8b" d="M470.87 349.64c0-.51.18-.94.53-1.29s.78-.53 1.29-.53.94.18 1.29.53.53.78.53 1.29-.18.94-.53 1.29-.78.53-1.29.53-.94-.18-1.29-.53-.53-.78-.53-1.29Zm4.86 0c0-.83-.3-1.55-.89-2.14s-1.31-.89-2.14-.89-1.55.3-2.14.89c-.59.59-.89 1.31-.89 2.14s.3 1.55.89 2.14c.59.59 1.31.89 2.14.89s1.55-.3 2.14-.89.89-1.31.89-2.14Zm-8.5 0c0-.76.15-1.47.44-2.12.28-.67.66-1.25 1.16-1.75s1.08-.88 1.75-1.16c.66-.29 1.37-.44 2.12-.44s1.47.15 2.12.44c.67.28 1.25.66 1.75 1.16s.88 1.08 1.16 1.75c.29.66.44 1.37.44 2.12 0 1.09-.23 2.12-.68 3.09-.44.97-.97 1.86-1.57 2.65-.61.79-1.21 1.46-1.82 2.02-.61.54-1.07.94-1.39 1.2-.32-.24-.78-.64-1.39-1.2s-1.21-1.23-1.82-2.02c-.63-.82-1.15-1.71-1.57-2.65-.46-.97-.68-2-.68-3.09h-.02Zm10.93 9.11h-3.76c.32-.28.62-.57.91-.86s.58-.6.85-.92l.02-.02c.52-.59.98-1.2 1.39-1.82.39-.61.72-1.22.99-1.83s.47-1.23.61-1.85c.14-.61.21-1.21.21-1.8 0-.89-.18-1.78-.53-2.6a6.599 6.599 0 0 0-3.54-3.54c-.81-.35-1.68-.53-2.6-.53s-1.79.18-2.6.53c-1.6.67-2.87 1.94-3.54 3.54-.35.82-.53 1.71-.53 2.6 0 .59.07 1.2.21 1.8.14.62.34 1.24.61 1.85.27.61.59 1.22.99 1.83.4.62.87 1.23 1.39 1.82.28.33.56.64.85.93s.59.58.91.85l.02.02h-3.76c-.16 0-.31.06-.43.18s-.18.26-.18.43.06.31.18.43.26.18.43.18h10.93c.16 0 .31-.06.43-.18s.18-.26.18-.43-.06-.31-.18-.43a.582.582 0 0 0-.43-.18h-.03Zm-112.29-41.92c0-.51.18-.94.53-1.29s.78-.53 1.29-.53.94.18 1.29.53.53.78.53 1.29-.18.94-.53 1.29-.78.53-1.29.53-.94-.18-1.29-.53-.53-.78-.53-1.29Zm4.86 0c0-.83-.3-1.55-.89-2.14s-1.31-.89-2.14-.89-1.55.3-2.14.89-.89 1.31-.89 2.14.3 1.55.89 2.14 1.31.89 2.14.89 1.55-.3 2.14-.89.89-1.31.89-2.14Zm-8.5 0c0-.76.15-1.47.44-2.12.28-.67.66-1.25 1.16-1.75s1.08-.88 1.75-1.16c.66-.29 1.37-.44 2.12-.44s1.47.15 2.12.44c.67.28 1.25.66 1.75 1.16s.88 1.08 1.16 1.75c.29.66.44 1.37.44 2.12 0 1.09-.23 2.12-.68 3.09-.44.97-.97 1.86-1.57 2.65-.61.79-1.21 1.46-1.82 2.02-.61.54-1.07.94-1.39 1.2-.32-.24-.78-.64-1.39-1.2-.61-.56-1.21-1.23-1.82-2.02-.63-.82-1.15-1.71-1.57-2.65-.46-.97-.68-2-.68-3.09h-.02Zm10.93 9.11h-3.76c.32-.28.62-.57.91-.86s.58-.6.85-.92l.02-.02c.52-.59.98-1.2 1.39-1.82.39-.61.72-1.22.99-1.83s.47-1.23.61-1.85c.14-.61.21-1.21.21-1.8 0-.89-.18-1.78-.53-2.6a6.599 6.599 0 0 0-3.54-3.54c-.81-.35-1.68-.53-2.6-.53s-1.79.18-2.6.53c-1.6.67-2.87 1.94-3.54 3.54-.35.82-.53 1.71-.53 2.6 0 .59.07 1.2.21 1.8.14.62.34 1.24.61 1.85.27.61.59 1.22.99 1.83.4.62.87 1.23 1.39 1.82.28.33.56.64.85.93s.59.58.91.85l.02.02h-3.76c-.16 0-.31.06-.43.18s-.18.26-.18.43.06.31.18.43.26.18.43.18h10.93c.16 0 .31-.06.43-.18s.18-.26.18-.43-.06-.31-.18-.43a.582.582 0 0 0-.43-.18h-.03Zm-148.7 75.48c0-.51.18-.94.53-1.29s.78-.53 1.29-.53.94.18 1.29.53.53.78.53 1.29-.18.94-.53 1.29-.78.53-1.29.53-.94-.18-1.29-.53-.53-.78-.53-1.29Zm4.86 0c0-.83-.3-1.55-.89-2.14s-1.31-.89-2.14-.89-1.55.3-2.14.89-.89 1.31-.89 2.14.3 1.55.89 2.14 1.31.89 2.14.89 1.55-.3 2.14-.89.89-1.31.89-2.14Zm-8.5 0c0-.76.15-1.47.44-2.12.28-.67.66-1.25 1.16-1.75s1.08-.88 1.75-1.16c.66-.29 1.37-.44 2.12-.44s1.47.15 2.12.44c.67.28 1.25.66 1.75 1.16s.88 1.08 1.16 1.75c.29.66.44 1.37.44 2.12 0 1.09-.23 2.12-.68 3.09-.44.97-.97 1.86-1.57 2.65-.61.79-1.21 1.46-1.82 2.02-.61.54-1.07.94-1.39 1.2-.32-.24-.78-.64-1.39-1.2-.61-.56-1.21-1.23-1.82-2.02-.63-.82-1.15-1.71-1.57-2.65-.46-.97-.68-2-.68-3.09h-.02Zm10.93 9.11h-3.76c.32-.28.62-.57.91-.86s.58-.6.85-.92l.02-.02c.52-.59.98-1.2 1.39-1.82.39-.61.72-1.22.99-1.83s.47-1.23.61-1.85c.14-.61.21-1.21.21-1.8 0-.89-.18-1.78-.53-2.6a6.599 6.599 0 0 0-3.54-3.54c-.81-.35-1.68-.53-2.6-.53s-1.79.18-2.6.53c-1.6.67-2.87 1.94-3.54 3.54-.35.82-.53 1.71-.53 2.6 0 .59.07 1.2.21 1.8.14.62.34 1.24.61 1.85.27.61.59 1.22.99 1.83.4.62.87 1.23 1.39 1.82.28.33.56.64.85.93s.59.58.91.85l.02.02h-3.76c-.16 0-.31.06-.43.18s-.18.26-.18.43.06.31.18.43.26.18.43.18h10.93c.16 0 .31-.06.43-.18s.18-.26.18-.43-.06-.31-.18-.43a.582.582 0 0 0-.43-.18h-.03Zm150.72 26.34c0-.51.18-.94.53-1.29s.78-.53 1.29-.53.94.18 1.29.53.53.78.53 1.29-.18.94-.53 1.29-.78.53-1.29.53-.94-.18-1.29-.53-.53-.78-.53-1.29Zm4.86 0c0-.83-.3-1.55-.89-2.14s-1.31-.89-2.14-.89-1.55.3-2.14.89-.89 1.31-.89 2.14.3 1.55.89 2.14 1.31.89 2.14.89 1.55-.3 2.14-.89.89-1.31.89-2.14Zm-8.5 0c0-.76.15-1.47.44-2.12.28-.67.66-1.25 1.16-1.75s1.08-.88 1.75-1.16c.66-.29 1.37-.44 2.12-.44s1.47.15 2.12.44c.67.28 1.25.66 1.75 1.16s.88 1.08 1.16 1.75c.29.66.44 1.37.44 2.12 0 1.09-.23 2.12-.68 3.09-.44.97-.97 1.86-1.57 2.65-.61.79-1.21 1.46-1.82 2.02-.61.54-1.07.94-1.39 1.2-.32-.24-.78-.64-1.39-1.2-.61-.56-1.21-1.23-1.82-2.02-.63-.82-1.15-1.71-1.57-2.65-.46-.97-.68-2-.68-3.09h-.02Zm10.93 9.11H386c.32-.28.62-.57.91-.86s.58-.6.85-.92l.02-.02c.52-.59.98-1.2 1.39-1.82.39-.61.72-1.22.99-1.83s.47-1.23.61-1.85c.14-.61.21-1.21.21-1.8 0-.89-.18-1.78-.53-2.6a6.599 6.599 0 0 0-3.54-3.54c-.81-.35-1.68-.53-2.6-.53s-1.79.18-2.6.53c-1.6.67-2.87 1.94-3.54 3.54-.35.82-.53 1.71-.53 2.6 0 .59.07 1.2.21 1.8.14.62.34 1.24.61 1.85.27.61.59 1.22.99 1.83.4.62.87 1.23 1.39 1.82.28.33.56.64.85.93s.59.58.91.85l.02.02h-3.76c-.16 0-.31.06-.43.18s-.18.26-.18.43.06.31.18.43.26.18.43.18h10.93c.16 0 .31-.06.43-.18s.18-.26.18-.43-.06-.31-.18-.43a.582.582 0 0 0-.43-.18h-.03Zm-46.18 96.72c0-.51.18-.94.53-1.29s.78-.53 1.29-.53.94.18 1.29.53.53.78.53 1.29-.18.94-.53 1.29-.78.53-1.29.53-.94-.18-1.29-.53-.53-.78-.53-1.29Zm4.86 0c0-.83-.3-1.55-.89-2.14s-1.31-.89-2.14-.89-1.55.3-2.14.89c-.59.59-.89 1.31-.89 2.14s.3 1.55.89 2.14c.59.59 1.31.89 2.14.89s1.55-.3 2.14-.89.89-1.31.89-2.14Zm-8.5 0c0-.76.15-1.47.44-2.12.28-.67.66-1.25 1.16-1.75s1.08-.88 1.75-1.16c.66-.29 1.37-.44 2.12-.44s1.47.15 2.12.44c.67.28 1.25.66 1.75 1.16s.88 1.08 1.16 1.75c.29.66.44 1.37.44 2.12 0 1.09-.23 2.12-.68 3.09-.44.97-.97 1.86-1.57 2.65-.61.79-1.21 1.46-1.82 2.02-.61.54-1.07.94-1.39 1.2-.32-.24-.78-.64-1.39-1.2-.61-.56-1.21-1.23-1.82-2.02-.63-.82-1.15-1.71-1.57-2.65-.46-.97-.68-2-.68-3.09h-.02Zm10.93 9.11h-3.76c.32-.28.62-.57.91-.86s.58-.6.85-.92l.02-.02c.52-.59.98-1.2 1.39-1.82.39-.61.72-1.22.99-1.83.27-.61.47-1.23.61-1.85.14-.61.21-1.21.21-1.8 0-.89-.18-1.78-.53-2.6a6.599 6.599 0 0 0-3.54-3.54c-.81-.35-1.68-.53-2.6-.53s-1.79.18-2.6.53c-1.6.67-2.87 1.94-3.54 3.54-.35.82-.53 1.71-.53 2.6 0 .59.07 1.2.21 1.8.14.62.34 1.24.61 1.85s.59 1.22.99 1.83c.4.62.87 1.23 1.39 1.82.28.33.56.64.85.93s.59.58.91.85l.02.02h-3.76c-.16 0-.31.06-.43.18s-.18.26-.18.43.06.31.18.43.26.18.43.18h10.93c.16 0 .31-.06.43-.18s.18-.26.18-.43-.06-.31-.18-.43a.582.582 0 0 0-.43-.18h-.03Z"/><path fill="#e44126" d="M406.64 283.65h.02c.52-.61.98-1.22 1.39-1.84.39-.6.72-1.21.98-1.83.27-.61.47-1.23.61-1.85.14-.6.21-1.2.21-1.8 0-.89-.18-1.78-.53-2.6-.34-.81-.82-1.52-1.42-2.12s-1.32-1.08-2.13-1.43-1.67-.53-2.6-.53-1.79.18-2.6.53-1.52.82-2.12 1.43c-.61.6-1.08 1.31-1.43 2.12-.35.82-.53 1.71-.53 2.6 0 .6.07 1.2.21 1.8.14.62.34 1.24.61 1.85.26.62.59 1.23.99 1.83.4.62.86 1.23 1.38 1.83.28.32.56.63.85.93.3.29.6.57.92.85v.02h-3.74c-.17 0-.31.06-.43.18s-.18.26-.18.43c0 .16.06.3.18.42s.26.18.43.18h10.93c.16 0 .3-.06.42-.18s.18-.26.18-.42c0-.17-.06-.31-.18-.43a.56.56 0 0 0-.42-.18h-3.76c.32-.28.62-.57.91-.86.29-.3.58-.61.85-.93Zm-2.08.44c-.61.55-1.07.94-1.39 1.2-.31-.24-.78-.64-1.38-1.2-.61-.56-1.22-1.23-1.82-2.02-.61-.79-1.14-1.67-1.58-2.65-.45-.97-.68-2-.68-3.09 0-.76.14-1.47.43-2.12.28-.67.67-1.26 1.16-1.75s1.08-.88 1.75-1.16c.65-.29 1.36-.43 2.12-.43s1.47.14 2.13.43c.67.28 1.25.67 1.74 1.16.5.49.88 1.08 1.16 1.75.29.65.44 1.36.44 2.12 0 1.09-.23 2.12-.69 3.09-.44.98-.96 1.86-1.57 2.65-.61.79-1.22 1.46-1.82 2.02Zm-1.39-10.79c-.83 0-1.55.29-2.14.89-.6.59-.89 1.31-.89 2.14s.29 1.55.89 2.15 1.31.89 2.14.89 1.55-.3 2.15-.89c.59-.6.89-1.31.89-2.15s-.3-1.55-.89-2.14-1.31-.89-2.15-.89Zm1.29 4.32c-.35.36-.78.53-1.29.53s-.93-.17-1.29-.53c-.35-.35-.53-.78-.53-1.29s.18-.93.53-1.29c.36-.35.79-.53 1.29-.53s.94.18 1.29.53.53.79.53 1.29-.17.94-.53 1.29Zm.86-3.43c-.6-.6-1.31-.89-2.15-.89s-1.55.29-2.14.89c-.6.59-.89 1.31-.89 2.14s.29 1.55.89 2.15 1.31.89 2.14.89 1.55-.3 2.15-.89c.59-.6.89-1.31.89-2.15s-.3-1.55-.89-2.14Zm-.86 3.43c-.35.36-.78.53-1.29.53s-.93-.17-1.29-.53c-.35-.35-.53-.78-.53-1.29s.18-.93.53-1.29c.36-.35.79-.53 1.29-.53s.94.18 1.29.53.53.79.53 1.29-.17.94-.53 1.29Zm.86-3.43c-.6-.6-1.31-.89-2.15-.89s-1.55.29-2.14.89c-.6.59-.89 1.31-.89 2.14s.29 1.55.89 2.15 1.31.89 2.14.89 1.55-.3 2.15-.89c.59-.6.89-1.31.89-2.15s-.3-1.55-.89-2.14Zm-.86 3.43c-.35.36-.78.53-1.29.53s-.93-.17-1.29-.53c-.35-.35-.53-.78-.53-1.29s.18-.93.53-1.29c.36-.35.79-.53 1.29-.53s.94.18 1.29.53.53.79.53 1.29-.17.94-.53 1.29Z"/><path fill="#f4b3a8" d="M408.2 274.21c-.28-.67-.66-1.26-1.16-1.75-.5-.5-1.09-.89-1.74-1.16-.66-.29-1.37-.43-2.13-.43s-1.47.14-2.12.43c-.67.28-1.26.67-1.75 1.16s-.88 1.08-1.16 1.75c-.29.65-.43 1.36-.43 2.12 0 1.09.23 2.12.68 3.09.44.98.97 1.86 1.58 2.65.6.79 1.21 1.46 1.82 2.02.6.56 1.07.96 1.38 1.2.32-.26.78-.65 1.39-1.2.6-.56 1.21-1.23 1.82-2.02.61-.79 1.13-1.67 1.57-2.65.46-.97.69-2 .69-3.09 0-.76-.15-1.47-.44-2.12Zm-2.88 4.27c-.6.59-1.31.89-2.15.89s-1.55-.3-2.14-.89-.89-1.31-.89-2.15.29-1.55.89-2.14c.59-.6 1.31-.89 2.14-.89s1.55.29 2.15.89.89 1.31.89 2.14-.3 1.55-.89 2.15Z"/><path fill="#9aa6b2" d="M382.21 76.6v1.8c0 .16-.06.3-.18.42s-.26.18-.42.18-.3-.06-.42-.18a.56.56 0 0 1-.18-.42v-1.8c0-.16.06-.3.18-.42s.26-.18.42-.18.3.06.42.18.18.26.18.42Zm16.8 0v1.8c0 .16-.06.3-.18.42s-.26.18-.42.18-.3-.06-.42-.18a.56.56 0 0 1-.18-.42v-1.8c0-.16.06-.3.18-.42s.26-.18.42-.18.3.06.42.18.18.26.18.42Zm-5.4 5.1c0 .25-.09.46-.26.64s-.39.26-.64.26-.46-.09-.64-.26-.26-.39-.26-.64.09-.46.26-.64.39-.26.64-.26.46.09.64.26.26.39.26.64Zm-5.4 0c0 .25-.09.46-.26.64s-.39.26-.64.26-.46-.09-.64-.26-.26-.39-.26-.64.09-.46.26-.64.39-.26.64-.26.46.09.64.26.26.39.26.64Zm5.4 4.5V85h1.8v1.2h-1.8Zm-7.2 0h-1.8V85h1.8v1.2Zm-.6-12h8.4c.34 0 .62.12.85.35.23.23.35.52.35.85h-10.8c0-.34.12-.62.35-.85.23-.23.52-.35.85-.35Zm-1.2 2.4h10.8v1.8h-10.8v-1.8Zm0 7.2v-4.2h10.8v4.2h-10.8Zm9.6-10.8h-8.4c-.66 0-1.23.23-1.7.7s-.7 1.03-.7 1.7v10.8c0 .34.12.62.35.85s.52.35.85.35h1.8c.34 0 .62-.12.85-.35.23-.23.35-.52.35-.85V85h4.8v1.2c0 .34.12.62.35.85.23.23.52.35.85.35h1.8c.34 0 .62-.12.85-.35.23-.23.35-.52.35-.85V75.4c0-.66-.23-1.23-.7-1.7s-1.03-.7-1.7-.7Zm-50.02 192.99h-1.34c-.14-.55-.44-1-.88-1.36s-.96-.53-1.55-.53-1.11.18-1.55.53-.74.8-.88 1.34v.02h-5.19c-.14-.55-.44-1-.88-1.36-.45-.35-.96-.53-1.55-.53s-1.11.18-1.55.53-.74.8-.88 1.34v.02h-1.34v-3.14h17.61v3.14h-.02Zm-3.77 1.89c-.35 0-.65-.12-.89-.36s-.36-.54-.36-.89.12-.65.36-.89.54-.36.89-.36.65.12.89.36.36.54.36.89-.12.65-.36.89-.54.36-.89.36Zm-10.06 0c-.35 0-.65-.12-.89-.36s-.36-.54-.36-.89.12-.65.36-.89.54-.36.89-.36.65.12.89.36.36.54.36.89-.12.65-.36.89-.54.36-.89.36Zm-1.55-8.8h8.84l2.52 2.52h-13.03l1.67-2.52Zm15.39 2.52h-2.26l-3.4-3.4c-.12-.12-.25-.21-.4-.28s-.31-.1-.48-.1h-8.84c-.21 0-.41.05-.59.15s-.33.23-.45.4l-2.34 3.5s-.05.11-.07.17c-.02.06-.03.12-.03.19V266c0 .35.12.65.36.89s.54.36.89.36h1.34c.14.55.44 1 .88 1.36.45.35.96.53 1.55.53s1.11-.18 1.55-.53c.45-.35.74-.8.88-1.34v-.02h5.19c.14.55.44 1 .88 1.36.45.35.96.53 1.55.53s1.11-.18 1.55-.53c.45-.35.74-.8.88-1.34v-.02h1.34c.35 0 .65-.12.89-.36s.36-.54.36-.89v-3.14c0-.35-.12-.65-.36-.89s-.54-.36-.89-.36h.02Zm34.12-171.69h-1.34c-.14-.55-.44-1-.88-1.36s-.96-.53-1.55-.53-1.11.18-1.55.53-.74.8-.88 1.34v.02h-5.19c-.14-.55-.44-1-.88-1.36-.45-.35-.96-.53-1.55-.53s-1.11.18-1.55.53-.74.8-.88 1.34v.02h-1.34v-3.14h17.61v3.14h-.02Zm-3.77 1.89c-.35 0-.65-.12-.89-.36s-.36-.54-.36-.89.12-.65.36-.89.54-.36.89-.36.65.12.89.36.36.54.36.89-.12.65-.36.89-.54.36-.89.36Zm-10.06 0c-.35 0-.65-.12-.89-.36s-.36-.54-.36-.89.12-.65.36-.89.54-.36.89-.36.65.12.89.36.36.54.36.89-.12.65-.36.89-.54.36-.89.36Zm-1.55-8.8h8.84l2.52 2.52h-13.03l1.67-2.52Zm15.39 2.52h-2.26l-3.4-3.4c-.12-.12-.25-.21-.4-.28s-.31-.1-.48-.1h-8.84c-.21 0-.41.05-.59.15s-.33.23-.45.4l-2.34 3.5c-.03.05-.05.11-.07.17-.02.06-.03.12-.03.19v3.77c0 .35.12.65.36.89s.54.36.89.36h1.34c.14.55.44 1 .88 1.36.45.35.96.53 1.55.53s1.11-.18 1.55-.53c.45-.35.74-.8.88-1.34v-.02h5.19c.14.55.44 1 .88 1.36.45.35.96.53 1.55.53s1.11-.18 1.55-.53c.45-.35.74-.8.88-1.34v-.02h1.34c.35 0 .65-.12.89-.36s.36-.54.36-.89v-3.14c0-.35-.12-.65-.36-.89s-.54-.36-.89-.36h.02ZM276.69 239.14h-1.34c-.14-.55-.44-1-.88-1.36s-.96-.53-1.55-.53-1.11.18-1.55.53-.74.8-.88 1.34v.02h-5.19c-.14-.55-.44-1-.88-1.36-.45-.35-.96-.53-1.55-.53s-1.11.18-1.55.53-.74.8-.88 1.34v.02h-1.34V236h17.61v3.14h-.02Zm-3.77 1.89c-.35 0-.65-.12-.89-.36s-.36-.54-.36-.89.12-.65.36-.89.54-.36.89-.36.65.12.89.36.36.54.36.89-.12.65-.36.89-.54.36-.89.36Zm-10.06 0c-.35 0-.65-.12-.89-.36s-.36-.54-.36-.89.12-.65.36-.89.54-.36.89-.36.65.12.89.36.36.54.36.89-.12.65-.36.89-.54.36-.89.36Zm-1.55-8.8h8.84l2.52 2.52h-13.03l1.67-2.52Zm15.39 2.52h-2.26l-3.4-3.4c-.12-.12-.25-.21-.4-.28-.15-.07-.31-.1-.48-.1h-8.84c-.21 0-.41.05-.59.15-.18.1-.33.23-.45.4l-2.34 3.5c-.03.05-.05.11-.07.17-.02.06-.03.12-.03.19v3.77c0 .35.12.65.36.89s.54.36.89.36h1.34c.14.55.44 1 .88 1.36.45.35.96.53 1.55.53s1.11-.18 1.55-.53c.45-.35.74-.8.88-1.34v-.02h5.19c.14.55.44 1 .88 1.36.45.35.96.53 1.55.53s1.11-.18 1.55-.53c.45-.35.74-.8.88-1.34v-.02h1.34c.35 0 .65-.12.89-.36s.36-.54.36-.89v-3.14c0-.35-.12-.65-.36-.89s-.54-.36-.89-.36h.02Z"/><path fill="#144e8b" d="M287.42 313.61c-.47-.15-.87-.35-1.2-.62l.43-.94c.34.26.7.45 1.08.57.38.12.79.18 1.23.18.49 0 .86-.08 1.12-.25s.4-.41.4-.72c0-.27-.12-.47-.37-.61s-.65-.27-1.21-.4c-.59-.13-1.06-.27-1.43-.44s-.64-.38-.83-.64-.28-.59-.28-.99.11-.78.34-1.11.55-.58.96-.77c.41-.18.89-.27 1.43-.27.49 0 .96.08 1.41.23.45.15.81.35 1.1.62l-.43.94c-.63-.5-1.32-.75-2.08-.75-.45 0-.81.09-1.08.27-.26.18-.4.44-.4.77 0 .27.12.48.35.63s.63.28 1.19.41c.59.13 1.08.28 1.45.44.37.16.65.37.85.62s.3.57.3.96c0 .42-.11.79-.33 1.1-.22.32-.55.56-.97.73s-.92.25-1.5.25c-.54 0-1.05-.07-1.52-.22h-.01Zm8.29-.76-.06.93c-.2.02-.38.03-.55.03-.69 0-1.19-.16-1.52-.47-.33-.32-.49-.79-.49-1.42v-2.13h-.94v-.94h.94v-1.46h1.25v1.46h1.29v.94h-1.29v2.11c0 .65.3.98.91.98.15 0 .3-.01.46-.03Zm4.36-3.62c.33.33.5.85.5 1.54v2.97h-1.19v-.75c-.11.26-.29.46-.53.61s-.53.22-.85.22-.62-.07-.89-.2-.48-.32-.63-.55-.23-.49-.23-.78c0-.36.09-.64.27-.85s.48-.36.9-.45c.41-.09.98-.14 1.71-.14h.25v-.23c0-.33-.07-.57-.21-.72-.14-.15-.38-.22-.71-.22-.26 0-.53.04-.81.14-.28.09-.56.21-.84.38l-.35-.86c.27-.17.6-.32.99-.43s.75-.17 1.1-.17c.69 0 1.2.17 1.53.5Zm-1 3.35c.21-.22.31-.51.31-.87v-.21h-.18c-.45 0-.79.02-1.04.06s-.42.11-.53.21-.16.24-.16.41c0 .21.07.39.22.52s.33.21.56.21c.33 0 .6-.11.81-.33h.01Zm7.49-5.89v7.05h-1.24v-.79c-.15.27-.36.49-.63.64-.28.15-.59.23-.95.23-.82 0-1.56-.47-1.89-1.22-.18-.39-.27-.84-.27-1.35s.09-.95.27-1.33c.18-.38.44-.67.77-.88s.7-.31 1.13-.31c.35 0 .67.07.94.22s.48.35.63.62v-2.88h1.25Zm-1.56 5.75c.22-.27.32-.66.32-1.17s-.11-.9-.32-1.16c-.22-.27-.52-.41-.92-.41s-.71.13-.93.4-.33.65-.33 1.15.11.9.33 1.18.53.42.92.42.71-.14.93-.41Zm5.81.41-.06.93c-.2.02-.38.03-.55.03-.69 0-1.19-.16-1.52-.47-.33-.32-.49-.79-.49-1.42v-2.13h-.94v-.94h.94v-1.46h1.25v1.46h1.29v.94h-1.29v2.11c0 .65.3.98.91.98.15 0 .3-.01.46-.03Zm4.08.89-2.1-2.23v2.23h-1.25v-7.05h1.25v4.3l1.97-2.13h1.52l-2.2 2.34 2.36 2.54h-1.55Zm3.32-7.16v1.23h-1.38v-1.23h1.38Zm-1.31 2.27h1.25v4.89h-1.25v-4.89Zm5.76.92-.73.07c-.83.09-1.24.51-1.24 1.26v2.64h-1.25v-4.89h1.19v.86c.25-.59.78-.91 1.57-.96l.38-.03.08 1.05Zm1.4 3.74c-.38-.21-.67-.5-.86-.88-.2-.38-.3-.82-.3-1.33s.1-.96.31-1.35.51-.69.9-.9.83-.32 1.34-.32c.35 0 .69.05 1.01.16.33.11.6.26.8.45l-.36.88c-.21-.17-.42-.29-.65-.38s-.46-.13-.69-.13c-.43 0-.77.13-1.01.4s-.36.66-.36 1.17.12.88.36 1.15.58.41 1.01.41c.23 0 .46-.04.69-.13s.45-.21.65-.38l.36.87c-.21.19-.49.35-.82.46s-.68.17-1.04.17c-.51 0-.96-.1-1.33-.31h-.01Zm8.14-4.28c.29.33.43.84.43 1.51v3h-1.25v-2.93c0-.38-.07-.66-.21-.83-.14-.17-.37-.26-.68-.26-.36 0-.65.11-.86.34-.22.23-.33.53-.33.91v2.77h-1.25v-7.05h1.25v2.84c.17-.26.39-.46.67-.6s.58-.2.93-.2c.59 0 1.02.17 1.31.5h-.01Zm5.99 2.29h-3.33c.04.45.18.79.41 1.01s.57.33 1 .33c.54 0 1.03-.17 1.48-.52l.36.86c-.23.19-.51.34-.85.45s-.69.17-1.03.17c-.8 0-1.43-.23-1.9-.68-.46-.45-.7-1.07-.7-1.86 0-.5.1-.94.3-1.33.2-.39.48-.69.84-.9s.77-.32 1.23-.32c.67 0 1.21.22 1.6.65s.58 1.03.58 1.79v.35h.01Zm-2.96-1.59c-.2.21-.33.52-.38.92h2.26c-.01-.41-.11-.71-.3-.92s-.45-.31-.78-.31-.6.11-.81.32Zm-75.48 15.68c-.47-.15-.87-.35-1.2-.62l.43-.94c.34.26.7.45 1.08.57.38.12.79.18 1.23.18.49 0 .86-.08 1.12-.25s.4-.41.4-.72c0-.27-.12-.47-.37-.61s-.65-.27-1.21-.4c-.59-.13-1.06-.27-1.43-.44s-.64-.38-.83-.64-.28-.59-.28-.99.11-.78.34-1.11.55-.58.96-.77c.41-.18.89-.27 1.43-.27.49 0 .96.08 1.41.23.45.15.81.35 1.1.62l-.43.94c-.63-.5-1.32-.75-2.08-.75-.45 0-.81.09-1.08.27-.26.18-.4.44-.4.77 0 .27.12.48.35.63s.63.28 1.19.41c.59.13 1.08.28 1.45.44.37.16.65.37.85.62s.3.57.3.96c0 .42-.11.79-.33 1.1-.22.32-.55.56-.97.73s-.92.25-1.5.25c-.54 0-1.05-.07-1.52-.22h-.01Zm8.29-.76-.06.93c-.2.02-.38.03-.55.03-.69 0-1.19-.16-1.52-.47-.33-.32-.49-.79-.49-1.42v-2.13h-.94v-.94h.94v-1.46h1.25v1.46h1.29v.94h-1.29v2.11c0 .65.3.98.91.98.15 0 .3-.01.46-.03Zm2.22-.49v1.38h-1.4v-1.38h1.4Zm4.01-5.67h3.08c.75 0 1.34.19 1.76.56s.63.9.63 1.58-.21 1.21-.63 1.59-1.01.57-1.76.57h-1.79v2.74h-1.29v-7.05Zm2.92 3.32c.89 0 1.33-.39 1.33-1.16 0-.39-.11-.69-.33-.88s-.55-.28-1-.28h-1.63v2.32h1.63Zm7.68 1.51h-3.33c.04.45.18.79.41 1.01s.57.33 1 .33c.54 0 1.03-.17 1.48-.52l.36.86c-.23.19-.51.34-.85.45s-.69.17-1.03.17c-.8 0-1.43-.23-1.9-.68-.46-.45-.7-1.07-.7-1.86 0-.5.1-.94.3-1.33.2-.39.48-.69.84-.9s.77-.32 1.23-.32c.67 0 1.21.22 1.6.65s.58 1.03.58 1.79v.35h.01Zm-2.96-1.59c-.2.21-.33.52-.38.92h2.26c-.01-.41-.11-.71-.3-.92s-.45-.31-.78-.31-.6.11-.81.32Zm6.87 2.92-.06.93c-.2.02-.38.03-.55.03-.69 0-1.19-.16-1.52-.47-.33-.32-.49-.79-.49-1.42v-2.13h-.94v-.94h.94v-1.46h1.25v1.46h1.29v.94h-1.29v2.11c0 .65.3.98.91.98.15 0 .3-.01.46-.03Zm5.02-1.33h-3.33c.04.45.18.79.41 1.01s.57.33 1 .33c.54 0 1.03-.17 1.48-.52l.36.86c-.23.19-.51.34-.85.45s-.69.17-1.03.17c-.8 0-1.43-.23-1.9-.68-.46-.45-.7-1.07-.7-1.86 0-.5.1-.94.3-1.33.2-.39.48-.69.84-.9s.77-.32 1.23-.32c.67 0 1.21.22 1.6.65s.58 1.03.58 1.79v.35h.01Zm-2.96-1.59c-.2.21-.33.52-.38.92h2.26c-.01-.41-.11-.71-.3-.92s-.45-.31-.78-.31-.6.11-.81.32Zm7.2-.16-.73.07c-.83.09-1.24.51-1.24 1.26v2.64h-1.25v-4.89h1.19v.86c.25-.59.78-.91 1.57-.96l.38-.03.08 1.05Zm7.81-.92v4.89h-1.22v-.75c-.15.27-.36.47-.62.62-.26.14-.55.21-.88.21-1.2 0-1.8-.67-1.8-2.02v-2.95h1.25v2.96c0 .35.07.6.21.77.14.17.36.25.66.25.35 0 .62-.11.83-.34s.31-.54.31-.92v-2.72h1.26Zm5.45.38c.29.33.43.84.43 1.51v3h-1.25v-2.93c0-.38-.07-.66-.21-.83-.14-.17-.37-.26-.68-.26-.36 0-.65.11-.86.34-.22.23-.33.53-.33.91v2.77h-1.25v-4.89h1.22v.73c.17-.27.39-.48.67-.63s.6-.22.95-.22c.59 0 1.02.17 1.31.5Zm6.42-2.54v7.05h-1.24v-.79c-.15.27-.36.49-.63.64-.28.15-.59.23-.95.23-.82 0-1.56-.47-1.89-1.22-.18-.39-.27-.84-.27-1.35s.09-.95.27-1.33c.18-.38.44-.67.77-.88s.7-.31 1.13-.31c.35 0 .67.07.94.22s.48.35.63.62v-2.88h1.25Zm-1.56 5.75c.22-.27.32-.66.32-1.17s-.11-.9-.32-1.16c-.22-.27-.52-.41-.92-.41s-.71.13-.93.4-.33.65-.33 1.15.11.9.33 1.18.53.42.92.42.71-.14.93-.41Zm5.67-5.75h3.08c.75 0 1.34.19 1.76.56s.63.9.63 1.58-.21 1.21-.63 1.59-1.01.57-1.76.57h-1.79v2.74h-1.29v-7.05Zm2.92 3.32c.89 0 1.33-.39 1.33-1.16 0-.39-.11-.69-.33-.88s-.55-.28-1-.28h-1.63v2.32h1.63Zm7.07-.78c.33.33.5.85.5 1.54v2.97h-1.19v-.75c-.11.26-.29.46-.53.61s-.53.22-.85.22-.62-.07-.89-.2-.48-.32-.63-.55-.23-.49-.23-.78c0-.36.09-.64.27-.85s.48-.36.9-.45c.41-.09.98-.14 1.71-.14h.25v-.23c0-.33-.07-.57-.21-.72-.14-.15-.38-.22-.71-.22-.26 0-.53.04-.81.14-.28.09-.56.21-.84.38l-.35-.86c.27-.17.6-.32.99-.43s.75-.17 1.1-.17c.69 0 1.2.17 1.53.5Zm-1 3.35c.21-.22.31-.51.31-.87v-.21h-.18c-.45 0-.79.02-1.04.06s-.42.11-.53.21-.16.24-.16.41c0 .21.07.39.22.52s.33.21.56.21c.33 0 .6-.11.81-.33h.01Zm7.26-3.73v4.89h-1.22v-.75c-.15.27-.36.47-.62.62-.26.14-.55.21-.88.21-1.2 0-1.8-.67-1.8-2.02v-2.95h1.25v2.96c0 .35.07.6.21.77.14.17.36.25.66.25.35 0 .62-.11.83-.34s.31-.54.31-.92v-2.72h1.26Zm1.3-2.16h1.25v7.05h-1.25v-7.05Z"/><path fill="#9aa6b2" d="M319.57 53.81c.22.3.33.67.33 1.1 0 .6-.21 1.07-.65 1.41-.43.34-1.02.51-1.77.51h-3.2v-7.05h3.1c.73 0 1.31.16 1.73.48s.62.77.62 1.35c0 .37-.1.7-.29.97-.2.27-.47.47-.81.6.41.11.72.32.94.62Zm-4.02-1.06h1.63c.89 0 1.33-.33 1.33-.99 0-.33-.11-.58-.33-.74s-.55-.24-1-.24h-1.63v1.97Zm2.82 2.83c.21-.17.32-.43.32-.78s-.11-.62-.33-.79-.56-.26-1.02-.26h-1.8v2.08h1.8c.47 0 .81-.08 1.02-.25Zm7.12-3.64v4.89h-1.22v-.75c-.15.27-.36.47-.62.62-.26.14-.55.21-.88.21-1.2 0-1.8-.67-1.8-2.02v-2.95h1.25v2.96c0 .35.07.6.21.77.14.17.36.25.66.25.35 0 .62-.11.83-.34s.31-.54.31-.92v-2.72h1.26Zm1.91 4.81c-.36-.11-.67-.26-.92-.46l.35-.87c.52.38 1.12.57 1.79.57.29 0 .5-.05.65-.14s.23-.23.23-.4c0-.15-.05-.26-.16-.34-.1-.08-.29-.15-.55-.22l-.8-.18c-.45-.1-.79-.26-1.01-.49-.22-.23-.33-.52-.33-.88 0-.3.08-.56.25-.79s.41-.41.71-.53c.3-.13.66-.19 1.06-.19.67 0 1.32.21 1.85.61l-.35.85c-.51-.37-1.01-.55-1.52-.55-.27 0-.49.05-.64.15-.15.1-.23.24-.23.42 0 .13.05.24.15.33s.25.15.46.2l.83.19c.49.11.84.27 1.07.5s.34.53.34.91c0 .45-.18.81-.55 1.08s-.86.4-1.49.4c-.43 0-.83-.05-1.2-.16h.01Zm11.98.08-.74-.76c-.29.27-.62.47-.98.62s-.75.22-1.15.22c-.47 0-.89-.08-1.26-.25-.37-.16-.65-.39-.85-.68s-.3-.62-.3-1c0-.42.12-.8.35-1.13.24-.33.61-.65 1.13-.94-.26-.29-.45-.55-.56-.79-.12-.24-.17-.49-.17-.75 0-.5.18-.9.53-1.21.36-.3.82-.46 1.4-.46.53 0 .96.14 1.28.42s.47.65.47 1.12c0 .36-.1.68-.31.96s-.55.57-1.02.85l1.39 1.42c.27-.54.42-1.17.45-1.89h1.04c-.04 1.03-.29 1.91-.75 2.65l1.55 1.59h-1.5Zm-1.43-1.47-1.72-1.78c-.33.2-.56.4-.7.62-.14.21-.22.45-.22.72 0 .31.11.56.33.75.22.18.53.27.91.27.53 0 .99-.19 1.4-.58Zm-1.76-4.57c-.15.14-.22.33-.22.57 0 .16.04.31.12.46.08.15.23.34.46.58.35-.2.6-.38.74-.55.14-.17.21-.35.21-.56s-.07-.4-.2-.52-.31-.19-.52-.19c-.25 0-.44.07-.59.21Zm12.47 4.39h-3.43l-.71 1.65h-1.3l3.19-7.05h1.05l3.19 7.05h-1.28l-.71-1.65Zm-.43-1-1.29-3-1.29 3h2.58Zm7.55-2.24v4.89h-1.22v-.75c-.15.27-.36.47-.62.62-.26.14-.55.21-.88.21-1.2 0-1.8-.67-1.8-2.02v-2.95h1.25v2.96c0 .35.07.6.21.77.14.17.36.25.66.25.35 0 .62-.11.83-.34s.31-.54.31-.92v-2.72h1.26Zm4.26 4-.06.93c-.2.02-.38.03-.55.03-.69 0-1.19-.16-1.52-.47-.33-.32-.49-.79-.49-1.42v-2.13h-.94v-.94h.94v-1.46h1.25v1.46h1.29v.94h-1.29v2.11c0 .65.3.98.91.98.15 0 .3 0 .46-.03Zm1.65.66c-.38-.21-.67-.5-.88-.89s-.31-.84-.31-1.35.1-.96.31-1.34.5-.68.88-.89.81-.31 1.31-.31.94.1 1.31.31c.38.21.67.5.87.89.2.38.31.83.31 1.34s-.1.96-.31 1.35c-.2.39-.49.68-.87.89s-.81.31-1.31.31-.94-.1-1.31-.31Zm2.23-1.06c.21-.27.32-.66.32-1.18s-.11-.9-.32-1.17-.52-.4-.92-.4-.71.13-.92.4c-.22.27-.33.66-.33 1.17s.11.91.32 1.18c.21.27.52.4.92.4s.72-.13.93-.4Zm3.89-3.6v1.38h-1.4v-1.38h1.4Zm0 3.51v1.38h-1.4v-1.38h1.4Zm-100.95 6.33h4.62v1.03h-3.35v1.92h3.15v1.03h-3.15v3.07h-1.27v-7.05Zm8.67 3.08-.73.07c-.83.09-1.24.51-1.24 1.26v2.64h-1.25v-4.89h1.19v.86c.25-.59.78-.91 1.57-.96l.38-.03.08 1.05Zm1.92-3.19v1.23h-1.38v-1.23h1.38Zm-1.31 2.27h1.25v4.89h-1.25v-4.89Zm6.83 2.67h-3.33c.04.45.18.79.41 1.01s.57.33 1 .33c.54 0 1.03-.17 1.48-.52l.36.86c-.23.19-.51.34-.85.45s-.69.17-1.03.17c-.8 0-1.43-.23-1.9-.68-.46-.45-.7-1.07-.7-1.86 0-.5.1-.94.3-1.33.2-.39.48-.69.84-.9s.77-.32 1.23-.32c.67 0 1.21.22 1.6.65s.58 1.03.58 1.79v.35h.01Zm-2.96-1.59c-.2.21-.33.52-.38.92h2.26c-.01-.41-.11-.71-.3-.92s-.45-.31-.78-.31-.6.11-.81.32Zm8.7-3.24v7.05h-1.24v-.79c-.15.27-.36.49-.63.64-.28.15-.59.23-.95.23-.82 0-1.56-.47-1.89-1.22-.18-.39-.27-.84-.27-1.35s.09-.95.27-1.33c.18-.38.44-.67.77-.88s.7-.31 1.13-.31c.35 0 .67.07.94.22.27.15.48.35.63.62v-2.88h1.25Zm-1.56 5.75c.22-.27.32-.66.32-1.17s-.11-.9-.32-1.16c-.22-.27-.52-.41-.92-.41s-.71.13-.93.4c-.22.27-.33.65-.33 1.15s.11.9.33 1.18.53.42.92.42.71-.14.93-.41Zm7.14-.92h-3.33c.04.45.18.79.41 1.01s.57.33 1 .33c.54 0 1.03-.17 1.48-.52l.36.86c-.23.19-.51.34-.85.45s-.69.17-1.03.17c-.8 0-1.43-.23-1.9-.68-.46-.45-.7-1.07-.7-1.86 0-.5.1-.94.3-1.33.2-.39.48-.69.84-.9s.77-.32 1.23-.32c.67 0 1.21.22 1.6.65s.58 1.03.58 1.79v.35h.01Zm-2.96-1.59c-.2.21-.33.52-.38.92h2.26c-.01-.41-.11-.71-.3-.92s-.45-.31-.78-.31-.6.11-.81.32Zm8.13-.7c.29.33.43.84.43 1.51v3h-1.25V65.9c0-.38-.07-.66-.21-.83-.14-.17-.37-.26-.68-.26-.36 0-.65.11-.86.34-.22.23-.33.53-.33.91v2.77h-1.25v-4.89h1.22v.73c.17-.27.39-.48.67-.63.28-.15.6-.22.95-.22.59 0 1.02.17 1.31.5Zm2.31 4.43c-.36-.11-.67-.26-.92-.46l.35-.87c.52.38 1.12.57 1.79.57.29 0 .5-.05.65-.14s.23-.23.23-.4c0-.15-.05-.26-.16-.34-.1-.08-.29-.15-.55-.22l-.8-.18c-.45-.1-.79-.26-1.01-.49-.22-.23-.33-.52-.33-.88 0-.3.08-.56.25-.79s.41-.41.71-.53c.3-.13.66-.19 1.06-.19.67 0 1.32.21 1.85.61l-.35.85c-.51-.37-1.01-.55-1.52-.55-.27 0-.49.05-.64.15-.15.1-.23.24-.23.42 0 .13.05.24.15.33.1.09.25.15.46.2l.83.19c.49.11.84.27 1.07.5s.34.53.34.91c0 .45-.18.81-.55 1.08s-.86.4-1.49.4c-.43 0-.83-.05-1.2-.16h.01Zm4.85 0c-.36-.11-.67-.26-.92-.46l.35-.87c.52.38 1.12.57 1.79.57.29 0 .5-.05.65-.14s.23-.23.23-.4c0-.15-.05-.26-.16-.34-.1-.08-.29-.15-.55-.22l-.8-.18c-.45-.1-.79-.26-1.01-.49-.22-.23-.33-.52-.33-.88 0-.3.08-.56.25-.79s.41-.41.71-.53c.3-.13.66-.19 1.06-.19.67 0 1.32.21 1.85.61l-.35.85c-.51-.37-1.01-.55-1.52-.55-.27 0-.49.05-.64.15-.15.1-.23.24-.23.42 0 .13.05.24.15.33.1.09.25.15.46.2l.83.19c.49.11.84.27 1.07.5s.34.53.34.91c0 .45-.18.81-.55 1.08s-.86.4-1.49.4c-.43 0-.83-.05-1.2-.16h.01Zm7.15-.81-.06.93c-.2.02-.38.03-.55.03-.69 0-1.19-.16-1.52-.47-.33-.32-.49-.79-.49-1.42v-2.13h-.94v-.94h.94v-1.46h1.25v1.46h1.29v.94h-1.29v2.11c0 .65.3.98.91.98.15 0 .3-.01.46-.03Zm3.95-3.08-.73.07c-.83.09-1.24.51-1.24 1.26v2.64h-1.25v-4.89h1.19v.86c.25-.59.78-.91 1.57-.96l.38-.03.08 1.05Zm4.22-.54c.33.33.5.85.5 1.54v2.97h-1.19v-.75c-.11.26-.29.46-.53.61s-.53.22-.85.22-.62-.07-.89-.2-.48-.32-.63-.55-.23-.49-.23-.78c0-.36.09-.64.27-.85s.48-.36.9-.45c.41-.09.98-.14 1.71-.14h.25v-.23c0-.33-.07-.57-.21-.72-.14-.15-.38-.22-.71-.22-.26 0-.53.04-.81.14-.28.09-.56.21-.84.38l-.35-.86c.27-.17.6-.32.99-.43s.75-.17 1.1-.17c.69 0 1.2.17 1.53.5Zm-1 3.35c.21-.22.31-.51.31-.87v-.21h-.18c-.45 0-.79.02-1.04.06s-.42.11-.53.21-.16.24-.16.41c0 .21.07.39.22.52s.33.21.56.21c.33 0 .6-.11.81-.33h.01Zm2.77-3.4c0-.82.22-1.45.67-1.9s1.08-.67 1.9-.67c.61 0 1.08.12 1.42.38.34.25.51.6.51 1.04 0 .26-.06.49-.19.68-.12.19-.3.4-.53.63-.17.16-.29.29-.37.41-.08.11-.12.23-.12.34 0 .16.07.29.21.38.14.09.37.19.68.29.31.11.57.21.76.31s.36.25.51.44c.14.19.21.44.21.74 0 .47-.18.85-.54 1.14s-.83.43-1.42.43c-.37 0-.72-.06-1.06-.17s-.64-.26-.9-.46l.36-.87c.55.36 1.08.54 1.57.54.27 0 .48-.04.62-.13s.21-.22.21-.4-.08-.31-.23-.4-.39-.19-.71-.3c-.31-.1-.56-.2-.75-.29-.19-.09-.36-.23-.5-.42-.14-.18-.21-.42-.21-.7 0-.25.06-.46.18-.64s.29-.39.52-.62c.17-.18.3-.33.38-.45.08-.11.12-.25.12-.39 0-.19-.07-.33-.21-.44s-.34-.16-.6-.16c-.41 0-.72.13-.94.38s-.33.61-.33 1.08v4.74h-1.25v-4.56l.03.02Zm10.84 2.34h-3.33c.04.45.18.79.41 1.01s.57.33 1 .33c.54 0 1.03-.17 1.48-.52l.36.86c-.23.19-.51.34-.85.45s-.69.17-1.03.17c-.8 0-1.43-.23-1.9-.68-.46-.45-.7-1.07-.7-1.86 0-.5.1-.94.3-1.33.2-.39.48-.69.84-.9s.77-.32 1.23-.32c.67 0 1.21.22 1.6.65s.58 1.03.58 1.79v.35h.01Zm-2.96-1.59c-.2.21-.33.52-.38.92h2.26c-.01-.41-.11-.71-.3-.92s-.45-.31-.78-.31-.6.11-.81.32Zm3.87 4.24 2.57-8.04.95.3-2.57 8.04-.95-.3Zm9.17-2.08h-3.43l-.71 1.65h-1.3l3.19-7.05h1.05l3.19 7.05h-1.28l-.71-1.65Zm-.43-1-1.29-3-1.29 3h2.58Zm5.89 1.76-.06.93c-.2.02-.38.03-.55.03-.69 0-1.19-.16-1.52-.47-.33-.32-.49-.79-.49-1.42v-2.13h-.94v-.94h.94v-1.46h1.25v1.46h1.29v.94h-1.29v2.11c0 .65.3.98.91.98.15 0 .3-.01.46-.03Zm3.95-3.08-.73.07c-.83.09-1.24.51-1.24 1.26v2.64h-1.25v-4.89h1.19v.86c.25-.59.78-.91 1.57-.96l.38-.03.08 1.05Zm1.92-3.19v1.23h-1.38v-1.23h1.38Zm-1.31 2.27h1.25v4.89h-1.25v-4.89Zm7.03 0v4.89h-1.22v-.75c-.15.27-.36.47-.62.62-.26.14-.55.21-.88.21-1.2 0-1.8-.67-1.8-2.02v-2.95h1.25v2.96c0 .35.07.6.21.77.14.17.36.25.66.25.35 0 .62-.11.83-.34s.31-.54.31-.92v-2.72h1.26Zm8.35.38c.27.33.41.83.41 1.52v3h-1.25v-2.95c0-.37-.06-.65-.19-.81s-.33-.25-.61-.25c-.33 0-.59.11-.78.34-.19.23-.28.54-.28.95v2.73h-1.25V65.9c0-.37-.06-.65-.19-.81s-.33-.25-.61-.25c-.33 0-.58.11-.77.34-.19.23-.28.54-.28.95v2.73h-1.25v-4.89h1.22v.69c.15-.27.35-.47.61-.6.26-.14.56-.2.89-.2.74 0 1.23.31 1.47.92.15-.29.37-.51.66-.68.29-.16.61-.24.96-.24.55 0 .97.16 1.24.49v-.03ZM260.24 202.8h-3.43l-.71 1.65h-1.3l3.19-7.05h1.05l3.19 7.05h-1.28l-.71-1.65Zm-.43-1-1.29-3-1.29 3h2.58Zm7.55-2.24v4.89h-1.22v-.75c-.15.27-.36.47-.62.62-.26.14-.55.21-.88.21-1.2 0-1.8-.67-1.8-2.02v-2.95h1.25v2.96c0 .35.07.6.21.77.14.17.36.25.66.25.35 0 .62-.11.83-.34s.31-.54.31-.92v-2.72h1.26Zm4.26 4-.06.93c-.2.02-.38.03-.55.03-.69 0-1.19-.16-1.52-.47-.33-.32-.49-.79-.49-1.42v-2.13h-.94v-.94h.94v-1.46h1.25v1.46h1.29v.94h-1.29v2.11c0 .65.3.98.91.98.15 0 .3 0 .46-.03Zm1.65.66c-.38-.21-.67-.5-.88-.89s-.31-.84-.31-1.35.1-.96.31-1.34.5-.68.88-.89.81-.31 1.31-.31.94.1 1.31.31c.38.21.67.5.87.89.2.38.31.83.31 1.34s-.1.96-.31 1.35c-.2.39-.49.68-.87.89s-.81.31-1.31.31-.94-.1-1.31-.31Zm2.23-1.06c.21-.27.32-.66.32-1.18s-.11-.9-.32-1.17-.52-.4-.92-.4-.71.13-.92.4c-.22.27-.33.66-.33 1.17s.11.91.32 1.18c.21.27.52.4.92.4s.72-.13.93-.4Zm3.89-3.6v1.38h-1.4v-1.38h1.4Zm0 3.51v1.38h-1.4v-1.38h1.4Zm-28.63 13.38h-1.4l-1.21-2.25c-.11-.21-.25-.36-.42-.45s-.38-.13-.63-.13h-.98v2.83h-1.27v-7.05h3.12c.8 0 1.41.18 1.83.53.42.36.62.87.62 1.54 0 .54-.15.99-.46 1.34-.3.35-.73.58-1.29.68.37.1.67.36.9.79l1.18 2.16h.01Zm-1.9-4.1c.23-.18.34-.46.34-.84s-.11-.67-.34-.85c-.23-.18-.58-.26-1.07-.26h-1.68v2.23h1.68c.49 0 .84-.09 1.07-.28Zm3.75 3.87c-.38-.21-.67-.5-.88-.89s-.31-.84-.31-1.35.1-.96.31-1.34.5-.68.88-.89.81-.31 1.31-.31.94.1 1.31.31c.38.21.67.5.87.89.2.38.31.83.31 1.34s-.1.96-.31 1.35c-.2.39-.49.68-.87.89s-.81.31-1.31.31-.94-.1-1.31-.31Zm2.23-1.06c.21-.27.32-.66.32-1.18s-.11-.9-.32-1.17-.52-.4-.92-.4-.71.13-.92.4c-.22.27-.33.66-.33 1.17s.11.91.32 1.18c.21.27.52.4.92.4s.72-.13.93-.4Zm2.6-5.76h1.25v7.05h-1.25v-7.05Zm2.54 0h1.25v7.05h-1.25v-7.05Zm6.48 2.36c.33.21.59.52.77.9.18.39.27.84.27 1.35s-.09.95-.27 1.33-.44.67-.77.88-.7.31-1.13.31c-.35 0-.66-.07-.93-.22s-.48-.35-.63-.61v2.55h-1.25v-6.69h1.23v.74c.15-.27.36-.48.64-.64.28-.15.59-.22.94-.22.42 0 .79.11 1.12.32Zm-.54 3.4c.22-.27.33-.65.33-1.15s-.11-.9-.33-1.18-.53-.42-.92-.42-.71.14-.92.41c-.22.27-.33.66-.33 1.17s.11.89.33 1.16.52.41.92.41.7-.13.92-.4Zm2.61-5.76h1.25v7.05h-1.25v-7.05Zm6.17 2.54c.33.33.5.85.5 1.54v2.97h-1.19v-.75c-.11.26-.29.46-.53.61s-.53.22-.85.22-.62-.07-.89-.2-.48-.32-.63-.55-.23-.49-.23-.78c0-.36.09-.64.27-.85s.48-.36.9-.45c.41-.09.98-.14 1.71-.14h.25v-.23c0-.33-.07-.57-.21-.72-.14-.15-.38-.22-.71-.22-.26 0-.53.04-.81.14-.28.09-.56.21-.84.38l-.35-.86c.27-.17.6-.32.99-.43s.75-.17 1.1-.17c.69 0 1.2.17 1.53.5Zm-1 3.35c.21-.22.31-.51.31-.87v-.21h-.18c-.45 0-.79.02-1.04.06s-.42.11-.53.21-.16.24-.16.41c0 .21.07.39.22.52s.33.21.56.21c.33 0 .6-.11.81-.33h.01Zm5.73.27-.06.93c-.2.02-.38.03-.55.03-.69 0-1.19-.16-1.52-.47-.33-.32-.49-.79-.49-1.42v-2.13h-.94v-.94h.94v-1.46h1.25v1.46h1.29v.94h-1.29v2.11c0 .65.3.98.91.98.15 0 .3 0 .46-.03Zm4.84-.05v.94h-4.26v-.87l2.66-3.08h-2.61v-.94h4.11v.85l-2.68 3.1h2.78Zm8.81-.44h-.99v1.38h-1.26v-1.38h-3.06v-.95l3.28-4.72h1.04v4.67h.99v1Zm-2.25-1v-2.69l-1.86 2.69h1.86Zm-48.55 52.9h-3.43l-.71 1.65h-1.3l3.19-7.05h1.05l3.19 7.05h-1.28l-.71-1.65Zm-.43-1-1.29-3-1.29 3h2.58Zm7.55-2.24v4.89h-1.22v-.75c-.15.27-.36.47-.62.62-.26.14-.55.21-.88.21-1.2 0-1.8-.67-1.8-2.02v-2.95h1.25v2.96c0 .35.07.6.21.77.14.17.36.25.66.25.35 0 .62-.11.83-.34s.31-.54.31-.92v-2.72h1.26Zm4.26 4-.06.93c-.2.02-.38.03-.55.03-.69 0-1.19-.16-1.52-.47-.33-.32-.49-.79-.49-1.42v-2.13h-.94v-.94h.94v-1.46h1.25v1.46h1.29v.94h-1.29v2.11c0 .65.3.98.91.98.15 0 .3-.01.46-.03Zm1.64.66c-.38-.21-.67-.5-.88-.89s-.31-.84-.31-1.35.1-.96.31-1.34.5-.68.88-.89c.38-.21.81-.31 1.31-.31s.94.1 1.31.31c.38.21.67.5.87.89.2.38.31.83.31 1.34s-.1.96-.31 1.35c-.2.39-.49.68-.87.89-.38.21-.81.31-1.31.31s-.94-.1-1.31-.31Zm2.23-1.06c.21-.27.32-.66.32-1.18s-.11-.9-.32-1.17-.52-.4-.92-.4-.71.13-.92.4c-.22.27-.33.66-.33 1.17s.11.91.32 1.18c.21.27.52.4.92.4s.72-.13.93-.4Zm3.9-3.6v1.38h-1.4v-1.38h1.4Zm0 3.51v1.38h-1.4v-1.38h1.4Zm9.89-2.43v3.38c-.32.16-.71.29-1.17.38-.46.09-.92.14-1.4.14-.73 0-1.36-.15-1.89-.44-.53-.29-.94-.71-1.23-1.25-.28-.54-.42-1.19-.42-1.93s.14-1.38.42-1.93c.28-.54.69-.96 1.21-1.25s1.14-.44 1.85-.44c.49 0 .96.07 1.39.22.43.14.79.35 1.08.61l-.43.93c-.33-.25-.65-.44-.96-.54-.34-.11-.69-.17-1.05-.17-.73 0-1.27.21-1.65.65-.37.43-.55 1.07-.55 1.92 0 1.73.76 2.6 2.28 2.6.45 0 .91-.06 1.36-.19v-1.77h-1.52v-.92h2.68Zm4.56-.16-.73.07c-.83.09-1.24.51-1.24 1.26v2.64h-1.25v-4.89h1.19v.86c.25-.59.78-.91 1.57-.96l.38-.03.08 1.05Zm4.22-.54c.33.33.5.85.5 1.54v2.97h-1.19v-.75c-.11.26-.29.46-.53.61s-.53.22-.85.22-.62-.07-.89-.2-.48-.32-.63-.55-.23-.49-.23-.78c0-.36.09-.64.27-.85s.48-.36.9-.45c.41-.09.98-.14 1.71-.14h.25v-.23c0-.33-.07-.57-.21-.72-.14-.15-.38-.22-.71-.22-.26 0-.53.04-.81.14-.28.09-.56.21-.84.38l-.35-.86c.27-.17.6-.32.99-.43s.75-.17 1.1-.17c.69 0 1.2.17 1.53.5Zm-1 3.35c.21-.22.31-.51.31-.87v-.21h-.18c-.45 0-.79.02-1.04.06s-.42.11-.53.21-.16.24-.16.41c0 .21.07.39.22.52s.33.21.56.21c.33 0 .6-.11.81-.33h.01Zm6.71-3.54c.33.21.58.5.77.88.18.38.27.82.27 1.33s-.09.96-.27 1.35-.44.69-.77.9-.71.32-1.12.32c-.35 0-.67-.08-.94-.23-.28-.15-.49-.37-.64-.64v.79h-1.23v-7.05h1.25v2.87c.15-.27.36-.47.63-.61s.58-.21.93-.21c.43 0 .8.1 1.13.31Zm-.54 3.39c.22-.28.33-.67.33-1.18s-.11-.88-.32-1.15c-.22-.27-.53-.4-.93-.4s-.71.14-.92.41c-.22.27-.33.66-.33 1.16s.11.9.33 1.17c.22.27.52.41.92.41s.7-.14.92-.42Zm6.9-.91h-3.33c.04.45.18.79.41 1.01s.57.33 1 .33c.54 0 1.03-.17 1.48-.52l.36.86c-.23.19-.51.34-.85.45s-.69.17-1.03.17c-.8 0-1.43-.23-1.9-.68-.46-.45-.7-1.07-.7-1.86 0-.5.1-.94.3-1.33.2-.39.48-.69.84-.9s.77-.32 1.23-.32c.67 0 1.21.22 1.6.65s.58 1.03.58 1.79v.35h.01Zm-2.96-1.59c-.2.21-.33.52-.38.92h2.26c-.01-.41-.11-.71-.3-.92s-.45-.31-.78-.31-.6.11-.81.32Zm8.13-.7c.29.33.43.84.43 1.51v3h-1.25v-2.93c0-.38-.07-.66-.21-.83-.14-.17-.37-.26-.68-.26-.36 0-.65.11-.86.34-.22.23-.33.53-.33.91v2.77h-1.25v-4.89h1.22v.73c.17-.27.39-.48.67-.63s.6-.22.95-.22c.59 0 1.02.17 1.31.5Zm8.31.28c.33.19.58.46.77.8.18.34.27.73.27 1.18s-.1.86-.3 1.21-.48.63-.84.83c-.36.2-.77.3-1.22.3-.89 0-1.58-.3-2.06-.9s-.73-1.46-.73-2.58c0-.77.12-1.44.35-2s.56-.99.99-1.29c.43-.3.95-.45 1.54-.45.42 0 .83.07 1.23.22.4.14.75.34 1.04.6l-.43.94c-.62-.49-1.22-.73-1.79-.73-.51 0-.91.22-1.2.65-.29.44-.44 1.07-.45 1.9.15-.3.38-.54.69-.71s.65-.25 1.03-.25c.41 0 .78.1 1.11.29Zm-.5 2.96c.22-.23.33-.55.33-.94s-.11-.7-.33-.93c-.22-.23-.51-.35-.88-.35s-.67.12-.9.35c-.23.24-.35.54-.35.92s.12.7.35.94.53.35.9.35.66-.12.88-.35Z"/><path fill="#144e8b" d="M462.05 384.9c-.47-.15-.87-.35-1.2-.62l.43-.94c.34.26.7.45 1.08.57s.79.18 1.23.18c.49 0 .86-.08 1.12-.25s.39-.41.39-.72c0-.27-.12-.47-.37-.61s-.65-.27-1.21-.4c-.59-.13-1.06-.27-1.43-.44s-.64-.38-.83-.64-.28-.59-.28-.99.11-.78.34-1.11.55-.58.96-.77c.41-.18.89-.27 1.43-.27.49 0 .96.08 1.41.23.45.15.81.35 1.1.62l-.43.94c-.63-.5-1.32-.75-2.08-.75-.45 0-.81.09-1.08.27-.26.18-.4.44-.4.77 0 .27.12.48.35.63s.63.28 1.19.41c.59.13 1.08.28 1.45.44s.65.37.85.62c.2.25.3.57.3.96 0 .42-.11.79-.33 1.1-.22.32-.55.56-.97.73s-.92.25-1.5.25c-.54 0-1.05-.07-1.52-.22Zm8.29-.76-.06.93c-.2.02-.38.03-.55.03-.69 0-1.19-.16-1.52-.47-.33-.32-.49-.79-.49-1.42v-2.13h-.94v-.94h.94v-1.46h1.25v1.46h1.29v.94h-1.29v2.11c0 .65.3.98.91.98.15 0 .3-.01.46-.03Zm4.36-3.62c.33.33.5.85.5 1.54v2.97h-1.19v-.75c-.11.26-.29.46-.54.61s-.53.22-.84.22-.62-.07-.89-.2-.48-.32-.63-.55-.23-.49-.23-.78c0-.36.09-.64.27-.85s.48-.36.9-.45.98-.14 1.71-.14h.25v-.23c0-.33-.07-.57-.21-.72s-.38-.22-.71-.22c-.26 0-.53.04-.82.14-.28.09-.56.21-.83.38l-.35-.86c.27-.17.6-.32.99-.43s.75-.17 1.1-.17c.69 0 1.2.17 1.53.5h-.01Zm-1 3.35c.21-.22.32-.51.32-.87v-.21h-.18c-.45 0-.79.02-1.04.06s-.42.11-.53.21-.16.24-.16.41c0 .21.07.39.22.52s.33.21.56.21c.33 0 .6-.11.81-.33Zm7.49-5.89v7.05h-1.24v-.79c-.15.27-.36.49-.63.64s-.59.23-.95.23c-.82 0-1.56-.47-1.89-1.22-.18-.39-.28-.84-.28-1.35s.09-.95.28-1.33c.18-.38.44-.67.76-.88.33-.21.7-.31 1.13-.31.35 0 .67.07.94.22s.48.35.63.62v-2.88h1.25Zm-1.56 5.75c.22-.27.32-.66.32-1.17s-.11-.9-.32-1.16c-.22-.27-.52-.41-.92-.41s-.71.13-.93.4-.33.65-.33 1.15.11.9.33 1.18c.22.28.53.42.92.42s.71-.14.93-.41Zm5.81.41-.06.93c-.2.02-.38.03-.55.03-.69 0-1.19-.16-1.52-.47-.33-.32-.49-.79-.49-1.42v-2.13h-.94v-.94h.94v-1.46h1.25v1.46h1.29v.94h-1.29v2.11c0 .65.3.98.91.98.15 0 .3-.01.46-.03Zm1.33.81c-.36-.11-.67-.26-.92-.46l.35-.87c.52.38 1.12.57 1.79.57.29 0 .5-.05.66-.14a.44.44 0 0 0 .22-.4c0-.15-.05-.26-.16-.34-.1-.08-.29-.15-.55-.22l-.8-.18c-.45-.1-.79-.26-1.01-.49-.22-.23-.33-.52-.33-.88 0-.3.08-.56.25-.79s.41-.41.71-.53c.3-.13.66-.19 1.05-.19.67 0 1.32.21 1.86.61l-.35.85c-.51-.37-1.01-.55-1.52-.55-.27 0-.49.05-.64.15s-.23.24-.23.42c0 .13.05.24.15.33.1.09.25.15.46.2l.83.19c.49.11.84.27 1.07.5s.34.53.34.91c0 .45-.18.81-.55 1.08s-.86.4-1.49.4c-.43 0-.83-.05-1.2-.16Zm5.14-.15c-.38-.21-.67-.5-.86-.88-.2-.38-.3-.82-.3-1.33s.11-.96.32-1.35.51-.69.89-.9.83-.32 1.34-.32c.35 0 .68.05 1.01.16.33.11.59.26.79.45l-.36.88c-.2-.16-.41-.29-.65-.38-.23-.09-.46-.13-.69-.13-.43 0-.77.13-1.01.4s-.36.66-.36 1.17.12.88.36 1.15.58.41 1.01.41c.23 0 .46-.04.69-.13s.45-.21.65-.38l.36.87c-.21.19-.49.35-.82.46s-.68.17-1.04.17c-.51 0-.96-.1-1.33-.31Zm8.13-4.28c.29.33.43.84.43 1.51v3h-1.25v-2.93c0-.38-.07-.66-.21-.83-.14-.17-.37-.26-.68-.26-.36 0-.65.11-.86.34-.22.23-.33.53-.33.91v2.77h-1.25v-7.05h1.25v2.84c.17-.26.39-.46.67-.6.28-.14.58-.2.92-.2.59 0 1.02.17 1.31.5Zm1.7-2.54h1.25v7.05h-1.25v-7.05Zm3.46 6.82c-.38-.21-.67-.5-.88-.89s-.31-.84-.31-1.35.1-.96.31-1.34.5-.68.88-.89c.38-.21.81-.31 1.31-.31s.94.1 1.32.31.67.5.87.89c.2.38.3.83.3 1.34s-.1.96-.3 1.35-.49.68-.87.89-.82.31-1.32.31-.94-.1-1.31-.31Zm2.23-1.06c.21-.27.32-.66.32-1.18s-.11-.9-.32-1.17c-.21-.27-.52-.4-.92-.4s-.71.13-.92.4-.33.66-.33 1.17.11.91.32 1.18.52.4.92.4.72-.13.93-.4Zm3.21 1.21c-.36-.11-.67-.26-.92-.46l.35-.87c.52.38 1.12.57 1.79.57.29 0 .5-.05.65-.14.14-.08.23-.23.23-.4 0-.15-.05-.26-.16-.34-.1-.08-.29-.15-.55-.22l-.8-.18c-.45-.1-.79-.26-1.01-.49s-.33-.52-.33-.88c0-.3.08-.56.25-.79s.41-.41.71-.53c.3-.13.66-.19 1.06-.19.67 0 1.32.21 1.85.61l-.35.85c-.51-.37-1.01-.55-1.52-.55-.27 0-.49.05-.64.15a.477.477 0 0 0-.09.75c.1.09.25.15.46.2l.83.19c.49.11.84.27 1.07.5s.34.53.34.91c0 .45-.18.81-.55 1.08s-.86.4-1.49.4c-.43 0-.83-.05-1.2-.16h.02Zm4.85 0c-.36-.11-.67-.26-.92-.46l.35-.87c.52.38 1.12.57 1.79.57.29 0 .5-.05.66-.14a.44.44 0 0 0 .22-.4c0-.15-.05-.26-.16-.34-.1-.08-.29-.15-.55-.22l-.8-.18c-.45-.1-.79-.26-1.01-.49-.22-.23-.33-.52-.33-.88 0-.3.08-.56.25-.79s.41-.41.71-.53c.3-.13.66-.19 1.05-.19.67 0 1.32.21 1.86.61l-.35.85c-.51-.37-1.01-.55-1.52-.55-.27 0-.49.05-.64.15s-.23.24-.23.42c0 .13.05.24.15.33.1.09.25.15.46.2l.83.19c.49.11.84.27 1.07.5s.34.53.34.91c0 .45-.18.81-.55 1.08s-.86.4-1.49.4c-.43 0-.83-.05-1.2-.16Zm-44.21 5.03-2.49 7.05h-1.05l-1.77-5.07-1.78 5.07h-1.05l-2.48-7.05h1.3l1.75 5.25 1.84-5.25h.91l1.79 5.28 1.8-5.28h1.23Zm4.6 4.83h-3.33c.04.45.18.79.41 1.01s.57.33 1 .33c.54 0 1.03-.17 1.48-.52l.36.86c-.23.19-.51.34-.86.45-.34.11-.69.17-1.03.17-.8 0-1.43-.23-1.9-.68-.46-.45-.7-1.07-.7-1.86 0-.5.1-.94.3-1.33.2-.39.48-.69.84-.9s.77-.32 1.23-.32c.67 0 1.21.22 1.6.65.39.43.58 1.03.58 1.79v.35h.02Zm-2.96-1.59c-.2.21-.33.52-.38.92h2.26c-.01-.41-.11-.71-.3-.92s-.45-.31-.78-.31-.6.11-.8.32Zm5.28-3.35v1.23h-1.38v-1.23h1.38Zm-1.31 2.27h1.25v4.89h-1.25v-4.89Zm9.6.38c.27.33.41.83.41 1.52v3h-1.25v-2.95c0-.37-.06-.65-.19-.81-.13-.17-.33-.25-.61-.25-.33 0-.59.11-.78.34s-.28.54-.28.95v2.73h-1.25v-2.95c0-.37-.06-.65-.18-.81-.12-.17-.33-.25-.62-.25-.33 0-.58.11-.77.34s-.28.54-.28.95v2.73h-1.25v-4.89h1.22v.69c.15-.27.35-.47.61-.6.26-.14.56-.2.89-.2.74 0 1.23.31 1.47.92.15-.29.37-.51.66-.68.29-.16.61-.24.96-.24.55 0 .97.16 1.24.49v-.03Zm5.3 0c.33.33.5.85.5 1.54v2.97h-1.19v-.75c-.11.26-.29.46-.54.61s-.53.22-.84.22-.62-.07-.89-.2-.48-.32-.63-.55-.23-.49-.23-.78c0-.36.09-.64.27-.85s.48-.36.9-.45.98-.14 1.71-.14h.25v-.23c0-.33-.07-.57-.21-.72s-.38-.22-.71-.22c-.26 0-.53.04-.82.14-.28.09-.56.21-.83.38l-.35-.86c.27-.17.6-.32.99-.43s.75-.17 1.1-.17c.69 0 1.2.17 1.53.5h-.01Zm-1 3.35c.21-.22.32-.51.32-.87v-.21h-.18c-.45 0-.79.02-1.04.06s-.42.11-.53.21-.16.24-.16.41c0 .21.07.39.22.52s.33.21.56.21c.33 0 .6-.11.81-.33Zm5.99-2.81-.73.07c-.83.09-1.24.51-1.24 1.26v2.64h-1.25v-4.89h1.19v.86c.25-.59.78-.91 1.57-.96l.38-.03.08 1.05Zm-144.83 64.22v7.05h-1.14v-4.66l-1.86 3.52h-.86l-1.87-3.47v4.61h-1.13v-7.05h1.02l2.42 4.61 2.41-4.61h1.01Zm5.05 2.54c.33.33.5.85.5 1.54v2.97h-1.19v-.75c-.11.26-.29.46-.53.61s-.53.22-.85.22-.62-.07-.89-.2-.48-.32-.63-.55-.23-.49-.23-.78c0-.36.09-.64.27-.85s.48-.36.9-.45c.41-.09.98-.14 1.71-.14h.25v-.23c0-.33-.07-.57-.21-.72-.14-.15-.38-.22-.71-.22-.26 0-.53.04-.81.14-.28.09-.56.21-.84.38l-.35-.86c.27-.17.6-.32.99-.43s.75-.17 1.1-.17c.69 0 1.2.17 1.53.5Zm-1 3.35c.21-.22.31-.51.31-.87v-.21h-.18c-.45 0-.79.02-1.04.06s-.42.11-.53.21-.16.24-.16.41c0 .21.07.39.22.52s.33.21.56.21c.33 0 .6-.11.81-.33h.01Zm5.99-2.81-.73.07c-.83.09-1.24.51-1.24 1.26v2.64h-1.25v-4.89h1.19v.86c.25-.59.78-.91 1.57-.96l.38-.03.08 1.05Zm3.96 3.97-2.1-2.23v2.23h-1.25v-7.05h1.25v4.3l1.97-2.13h1.52l-2.2 2.34 2.36 2.54h-1.55Z"/><path fill="#144e8b" d="m370.9 463.44-.06.93c-.2.02-.38.03-.55.03-.69 0-1.19-.16-1.52-.47-.33-.32-.49-.79-.49-1.42v-2.13h-.94v-.94h.94v-1.46h1.25v1.46h1.29v.94h-1.29v2.11c0 .65.3.98.91.98.15 0 .3-.01.46-.03Zm4.66-3.8c.33.21.59.52.77.9.18.39.27.84.27 1.35s-.09.95-.27 1.33c-.18.38-.44.67-.77.88s-.7.31-1.13.31c-.35 0-.66-.07-.93-.22s-.48-.35-.63-.61v2.55h-1.25v-6.69h1.23v.74c.15-.27.36-.48.64-.64.28-.15.59-.22.94-.22.42 0 .79.11 1.12.32Zm-.54 3.4c.22-.27.33-.65.33-1.15s-.11-.9-.33-1.18-.53-.42-.92-.42-.71.14-.92.41c-.22.27-.33.66-.33 1.17s.11.89.33 1.16.52.41.92.41.7-.13.92-.4Zm2.62-5.76h1.25v7.05h-1.25v-7.05Zm6.17 2.54c.33.33.5.85.5 1.54v2.97h-1.19v-.75c-.11.26-.29.46-.53.61s-.53.22-.85.22-.62-.07-.89-.2-.48-.32-.63-.55-.23-.49-.23-.78c0-.36.09-.64.27-.85s.48-.36.9-.45c.41-.09.98-.14 1.71-.14h.25v-.23c0-.33-.07-.57-.21-.72-.14-.15-.38-.22-.71-.22-.26 0-.53.04-.81.14-.28.09-.56.21-.84.38l-.35-.86c.27-.17.6-.32.99-.43s.75-.17 1.1-.17c.69 0 1.2.17 1.53.5Zm-1 3.35c.21-.22.31-.51.31-.87v-.21h-.18c-.45 0-.79.02-1.04.06s-.42.11-.53.21-.16.24-.16.41c0 .21.07.39.22.52s.33.21.56.21c.33 0 .6-.11.81-.33h.01Zm5.73.27-.06.93c-.2.02-.38.03-.55.03-.69 0-1.19-.16-1.52-.47-.33-.32-.49-.79-.49-1.42v-2.13h-.94v-.94h.94v-1.46h1.25v1.46h1.29v.94h-1.29v2.11c0 .65.3.98.91.98.15 0 .3-.01.46-.03Zm4.84-.05v.94h-4.26v-.87l2.66-3.08h-2.61v-.94h4.11v.85l-2.68 3.1h2.78Zm-163.24-37.83v3.38c-.32.16-.71.29-1.17.38-.46.09-.92.14-1.4.14-.73 0-1.36-.15-1.89-.44-.53-.29-.94-.71-1.23-1.25-.28-.54-.42-1.19-.42-1.93s.14-1.38.42-1.93c.28-.54.69-.96 1.21-1.25s1.14-.44 1.85-.44c.49 0 .96.07 1.39.22.43.14.79.35 1.08.61l-.43.93c-.33-.25-.65-.44-.96-.54-.34-.11-.69-.17-1.05-.17-.73 0-1.27.21-1.65.65-.37.43-.55 1.07-.55 1.92 0 1.73.76 2.6 2.28 2.6.45 0 .91-.06 1.36-.19v-1.77h-1.52v-.92h2.68Zm2.26 3.58c-.38-.21-.67-.5-.88-.89s-.31-.84-.31-1.35.1-.96.31-1.34.5-.68.88-.89c.38-.21.81-.31 1.31-.31s.94.1 1.31.31c.38.21.67.5.87.89.2.38.31.83.31 1.34s-.1.96-.31 1.35c-.2.39-.49.68-.87.89-.38.21-.81.31-1.31.31s-.94-.1-1.31-.31Zm2.23-1.06c.21-.27.32-.66.32-1.18s-.11-.9-.32-1.17-.52-.4-.92-.4-.71.13-.92.4c-.22.27-.33.66-.33 1.17s.11.91.32 1.18c.21.27.52.4.92.4s.72-.13.93-.4Zm6.89-.93h-3.33c.04.45.18.79.41 1.01s.57.33 1 .33c.54 0 1.03-.17 1.48-.52l.36.86c-.23.19-.51.34-.85.45s-.69.17-1.03.17c-.8 0-1.43-.23-1.9-.68-.46-.45-.7-1.07-.7-1.86 0-.5.1-.94.3-1.33.2-.39.48-.69.84-.9s.77-.32 1.23-.32c.67 0 1.21.22 1.6.65s.58 1.03.58 1.79v.35h.01Zm-2.96-1.59c-.2.21-.33.52-.38.92h2.26c-.01-.41-.11-.71-.3-.92s-.45-.31-.78-.31-.6.11-.81.32Zm6.87 2.92-.06.93c-.2.02-.38.03-.55.03-.69 0-1.19-.16-1.52-.47-.33-.32-.49-.79-.49-1.42v-2.13h-.94v-.94h.94v-1.46h1.25v1.46h1.29v.94h-1.29v2.11c0 .65.3.98.91.98.15 0 .3-.01.46-.03Zm4.88-3.62c.29.33.43.84.43 1.51v3h-1.25v-2.93c0-.38-.07-.66-.21-.83-.14-.17-.37-.26-.68-.26-.36 0-.65.11-.86.34-.22.23-.33.53-.33.91v2.77h-1.25v-7.05h1.25v2.84c.17-.26.39-.46.67-.6s.58-.2.93-.2c.59 0 1.02.17 1.31.5h-.01Zm5.99 2.29h-3.33c.04.45.18.79.41 1.01s.57.33 1 .33c.54 0 1.03-.17 1.48-.52l.36.86c-.23.19-.51.34-.85.45s-.69.17-1.03.17c-.8 0-1.43-.23-1.9-.68-.46-.45-.7-1.07-.7-1.86 0-.5.1-.94.3-1.33.2-.39.48-.69.84-.9s.77-.32 1.23-.32c.67 0 1.21.22 1.6.65s.58 1.03.58 1.79v.35h.01Zm-2.96-1.59c-.2.21-.33.52-.38.92h2.26c-.01-.41-.11-.71-.3-.92s-.45-.31-.78-.31-.6.11-.81.32Zm4.14.64h2.98v.99h-2.98v-.99Zm5.09 3.04c-.47-.15-.87-.35-1.2-.62l.43-.94c.34.26.7.45 1.08.57.38.12.79.18 1.23.18.49 0 .86-.08 1.12-.25s.4-.41.4-.72c0-.27-.12-.47-.37-.61s-.65-.27-1.21-.4c-.59-.13-1.06-.27-1.43-.44s-.64-.38-.83-.64-.28-.59-.28-.99.11-.78.34-1.11.55-.58.96-.77c.41-.18.89-.27 1.43-.27.49 0 .96.08 1.41.23.45.15.81.35 1.1.62l-.43.94c-.63-.5-1.32-.75-2.08-.75-.45 0-.81.09-1.08.27-.26.18-.4.44-.4.77 0 .27.12.48.35.63s.63.28 1.19.41c.59.13 1.08.28 1.45.44.37.16.65.37.85.62s.3.57.3.96c0 .42-.11.79-.33 1.1-.22.32-.55.56-.97.73s-.92.25-1.5.25c-.54 0-1.05-.07-1.52-.22h-.01Zm6.3-.1c-.38-.21-.67-.5-.86-.88-.2-.38-.3-.82-.3-1.33s.1-.96.31-1.35.51-.69.9-.9.83-.32 1.34-.32c.35 0 .69.05 1.01.16.33.11.6.26.8.45l-.36.88c-.21-.17-.42-.29-.65-.38s-.46-.13-.69-.13c-.43 0-.77.13-1.01.4s-.36.66-.36 1.17.12.88.36 1.15.58.41 1.01.41c.23 0 .46-.04.69-.13s.45-.21.65-.38l.36.87c-.21.19-.49.35-.82.46s-.68.17-1.04.17c-.51 0-.96-.1-1.33-.31h-.01Zm8.13-4.28c.29.33.43.84.43 1.51v3h-1.25v-2.93c0-.38-.07-.66-.21-.83-.14-.17-.37-.26-.68-.26-.36 0-.65.11-.86.34-.22.23-.33.53-.33.91v2.77h-1.25v-7.05h1.25v2.84c.17-.26.39-.46.67-.6s.58-.2.93-.2c.59 0 1.02.17 1.31.5H277Zm3.01-2.65v1.23h-1.38v-1.23h1.38Zm-1.31 2.27h1.25v4.89h-1.25v-4.89Zm2.54-2.16h1.25v7.05h-1.25v-7.05Zm2.54 0h1.25v7.05h-1.25v-7.05Zm6.83 4.83h-3.33c.04.45.18.79.41 1.01s.57.33 1 .33c.54 0 1.03-.17 1.48-.52l.36.86c-.23.19-.51.34-.86.45s-.69.17-1.04.17c-.8 0-1.43-.23-1.89-.68-.46-.45-.7-1.07-.7-1.86 0-.5.1-.94.3-1.33.2-.39.48-.69.85-.9.36-.21.77-.32 1.23-.32.67 0 1.21.22 1.6.65s.58 1.03.58 1.79v.35h.01Zm-2.96-1.59c-.2.21-.33.52-.38.92h2.26c-.01-.41-.11-.71-.3-.92-.19-.21-.45-.31-.78-.31s-.6.11-.8.32Zm7.2-.16-.73.07c-.83.09-1.24.51-1.24 1.26v2.64h-1.25v-4.89h1.19v.86c.25-.59.78-.91 1.57-.96l.38-.03.08 1.05Zm.46.8h2.98v.99h-2.98v-.99Zm4.42-3.88h2.6c1.15 0 2.05.31 2.68.92s.96 1.48.96 2.6-.32 1.98-.96 2.6c-.64.62-1.53.93-2.68.93h-2.6v-7.05Zm2.52 6c1.62 0 2.43-.83 2.43-2.48s-.81-2.47-2.43-2.47h-1.23v4.95h1.23Zm9.2-1.17h-3.33c.04.45.18.79.41 1.01s.57.33 1 .33c.54 0 1.03-.17 1.48-.52l.36.86c-.23.19-.51.34-.86.45s-.69.17-1.04.17c-.8 0-1.43-.23-1.89-.68-.46-.45-.7-1.07-.7-1.86 0-.5.1-.94.3-1.33.2-.39.48-.69.85-.9.36-.21.77-.32 1.23-.32.67 0 1.21.22 1.6.65s.58 1.03.58 1.79v.35h.01Zm-2.96-1.59c-.2.21-.33.52-.38.92h2.26c-.01-.41-.11-.71-.3-.92-.19-.21-.45-.31-.78-.31s-.6.11-.8.32Zm8.13-.7c.29.33.43.84.43 1.51v3h-1.25v-2.93c0-.38-.07-.66-.22-.83s-.37-.26-.67-.26c-.36 0-.65.11-.87.34s-.32.53-.32.91v2.77h-1.25v-4.89h1.22v.73c.17-.27.39-.48.67-.63s.6-.22.95-.22c.59 0 1.02.17 1.31.5Zm5.05 4.51-2.1-2.23v2.23h-1.25v-7.05h1.25v4.3l1.97-2.13h1.52l-2.2 2.34 2.36 2.54h-1.55Zm9.06-4.52c.27.33.41.83.41 1.52v3h-1.25v-2.95c0-.37-.06-.65-.19-.81s-.33-.25-.61-.25c-.33 0-.59.11-.78.34s-.28.54-.28.95v2.73h-1.25v-2.95c0-.37-.06-.65-.18-.81-.12-.17-.33-.25-.62-.25-.33 0-.58.11-.77.34s-.28.54-.28.95v2.73h-1.25v-4.89h1.22v.69c.15-.27.35-.47.61-.6.26-.14.56-.2.89-.2.74 0 1.23.31 1.47.92.15-.29.37-.51.66-.68.29-.16.61-.24.96-.24.55 0 .97.16 1.24.49v-.03Zm5.31 0c.33.33.5.85.5 1.54v2.97h-1.19v-.75c-.11.26-.29.46-.54.61s-.52.22-.84.22-.62-.07-.89-.2-.48-.32-.63-.55c-.15-.23-.23-.5-.23-.78 0-.36.09-.64.28-.85.18-.21.48-.36.89-.45s.98-.14 1.71-.14h.25v-.23c0-.33-.07-.57-.21-.72s-.38-.22-.71-.22c-.26 0-.53.04-.82.14-.28.09-.56.21-.83.38l-.35-.86c.27-.17.6-.32.99-.43.39-.11.75-.17 1.1-.17.69 0 1.2.17 1.53.5Zm-1 3.35c.21-.22.31-.51.31-.87v-.21h-.18c-.45 0-.79.02-1.04.06s-.42.11-.53.21-.16.24-.16.41c0 .21.07.39.22.52.15.14.33.21.56.21.33 0 .61-.11.82-.33Zm2.77-5.89h1.25v7.05h-1.25v-7.05Zm3.49 142.13v3.38c-.32.16-.71.29-1.17.38-.46.09-.92.14-1.4.14-.73 0-1.36-.15-1.89-.44-.53-.29-.94-.71-1.23-1.25-.28-.54-.42-1.19-.42-1.93s.14-1.38.42-1.92.69-.96 1.21-1.25 1.14-.44 1.85-.44c.49 0 .96.07 1.39.22.43.14.79.35 1.08.61l-.43.93c-.33-.25-.65-.44-.96-.54-.34-.11-.69-.17-1.05-.17-.73 0-1.27.21-1.65.64-.37.43-.55 1.07-.55 1.92 0 1.73.76 2.6 2.28 2.6.45 0 .91-.06 1.36-.19v-1.77h-1.52v-.92h2.68Zm2.25 3.58c-.38-.21-.67-.5-.88-.89s-.31-.84-.31-1.35.1-.96.31-1.34.5-.68.88-.88.81-.31 1.31-.31.94.1 1.31.31c.38.21.67.5.87.88.2.38.31.83.31 1.34s-.1.96-.31 1.35c-.2.39-.49.68-.87.89s-.81.31-1.31.31-.94-.1-1.31-.31Zm2.23-1.06c.21-.27.32-.66.32-1.18s-.11-.9-.32-1.17c-.21-.27-.52-.4-.92-.4s-.71.13-.92.4c-.22.27-.33.66-.33 1.17s.11.91.32 1.18c.21.27.52.4.92.4s.72-.13.93-.4Zm6.9-.93h-3.33c.04.45.18.79.41 1.01.23.22.57.33 1 .33.54 0 1.03-.17 1.48-.52l.36.86c-.23.19-.51.34-.85.45s-.69.17-1.03.17c-.8 0-1.43-.23-1.9-.68-.46-.45-.7-1.07-.7-1.86 0-.5.1-.94.3-1.33.2-.39.48-.69.84-.9s.77-.32 1.23-.32c.67 0 1.21.22 1.6.65s.58 1.03.58 1.79v.35h.01Zm-2.96-1.59c-.2.21-.33.52-.38.92h2.26c-.01-.41-.11-.71-.3-.92s-.45-.31-.78-.31-.6.11-.81.32Zm6.87 2.92-.06.93c-.2.02-.38.03-.55.03-.69 0-1.19-.16-1.52-.47s-.49-.79-.49-1.42v-2.13h-.94v-.94h.94v-1.46h1.25v1.46h1.29v.94h-1.29v2.11c0 .65.3.98.91.98.15 0 .3 0 .46-.03Zm4.88-3.62c.29.33.43.84.43 1.51v3h-1.25v-2.93c0-.38-.07-.66-.21-.83-.14-.17-.37-.26-.68-.26-.36 0-.65.11-.86.34-.22.23-.33.53-.33.91v2.77h-1.25v-7.05h1.25v2.84c.17-.26.39-.46.67-.6.28-.14.58-.2.93-.2.59 0 1.02.17 1.31.5h-.01Zm5.99 2.29h-3.33c.04.45.18.79.41 1.01.23.22.57.33 1 .33.54 0 1.03-.17 1.48-.52l.36.86c-.23.19-.51.34-.85.45s-.69.17-1.03.17c-.8 0-1.43-.23-1.9-.68-.46-.45-.7-1.07-.7-1.86 0-.5.1-.94.3-1.33.2-.39.48-.69.84-.9s.77-.32 1.23-.32c.67 0 1.21.22 1.6.65s.58 1.03.58 1.79v.35h.01Zm-2.96-1.59c-.2.21-.33.52-.38.92h2.26c-.01-.41-.11-.71-.3-.92s-.45-.31-.78-.31-.6.11-.81.32Zm4.58 3.73c-.36-.11-.67-.26-.92-.46l.35-.87c.52.38 1.12.57 1.79.57.29 0 .5-.05.65-.14.14-.08.23-.23.23-.4 0-.15-.05-.26-.16-.34-.1-.08-.29-.15-.55-.22l-.8-.18c-.45-.1-.79-.26-1.01-.49s-.33-.52-.33-.88c0-.3.08-.57.25-.79.17-.23.41-.41.71-.54s.66-.19 1.06-.19c.67 0 1.32.21 1.85.61l-.35.85c-.51-.37-1.01-.55-1.52-.55-.27 0-.49.05-.64.15s-.23.24-.23.42c0 .13.05.24.15.33s.25.15.46.2l.83.19c.49.11.84.28 1.07.5.23.23.34.53.34.91 0 .45-.18.81-.55 1.08s-.86.4-1.49.4c-.43 0-.83-.05-1.2-.16h.01Zm17.17-6.97-2.49 7.05h-1.05l-1.77-5.07-1.78 5.07h-1.05l-2.48-7.05h1.3l1.75 5.25 1.84-5.25h.91l1.79 5.28 1.8-5.28h1.23Zm1.22 6.82c-.38-.21-.67-.5-.88-.89s-.31-.84-.31-1.35.1-.96.31-1.34.5-.68.88-.88.81-.31 1.31-.31.94.1 1.31.31c.38.21.67.5.87.88.2.38.31.83.31 1.34s-.1.96-.31 1.35c-.2.39-.49.68-.87.89s-.81.31-1.31.31-.94-.1-1.31-.31Zm2.23-1.06c.21-.27.32-.66.32-1.18s-.11-.9-.32-1.17c-.21-.27-.52-.4-.92-.4s-.71.13-.92.4c-.22.27-.33.66-.33 1.17s.11.91.32 1.18c.21.27.52.4.92.4s.72-.13.93-.4Zm6.76-3.22c.29.33.43.84.43 1.51v3h-1.25v-2.93c0-.38-.07-.66-.21-.83-.14-.17-.37-.26-.68-.26-.36 0-.65.11-.86.34-.22.23-.33.53-.33.91v2.77h-1.25v-7.05h1.25v2.84c.17-.26.39-.46.67-.6.28-.14.58-.2.93-.2.59 0 1.02.17 1.31.5h-.01Zm5.85 0c.29.33.43.84.43 1.51v3h-1.25v-2.93c0-.38-.07-.66-.22-.83-.14-.17-.37-.26-.67-.26-.36 0-.65.11-.87.34-.22.23-.32.53-.32.91v2.77h-1.25v-4.89h1.22v.73c.17-.27.39-.48.67-.63s.6-.22.95-.22c.59 0 1.02.17 1.31.5Zm5.85 0c.29.33.43.84.43 1.51v3h-1.25v-2.93c0-.38-.07-.66-.22-.83-.14-.17-.37-.26-.67-.26-.36 0-.65.11-.87.34-.22.23-.32.53-.32.91v2.77h-1.25v-7.05h1.25v2.84c.17-.26.39-.46.67-.6.28-.14.58-.2.92-.2.59 0 1.02.17 1.31.5Zm5.33 0c.33.33.5.85.5 1.54v2.97h-1.19v-.75c-.11.26-.29.46-.54.61s-.52.22-.84.22-.62-.07-.89-.2c-.26-.12-.47-.31-.63-.55-.15-.23-.23-.5-.23-.78 0-.36.09-.64.28-.85.18-.21.48-.36.89-.45.41-.09.98-.14 1.71-.14h.25v-.23c0-.33-.07-.57-.21-.72s-.38-.22-.71-.22c-.26 0-.53.04-.82.14-.28.09-.56.21-.83.38l-.35-.86c.27-.17.6-.32.99-.43s.75-.17 1.1-.17c.69 0 1.2.17 1.53.5h-.01Zm-1 3.35c.21-.22.31-.51.31-.87v-.21h-.18c-.45 0-.79.02-1.04.06s-.42.11-.53.21c-.11.1-.16.24-.16.41 0 .21.07.39.22.52.15.14.33.21.56.21.33 0 .61-.11.82-.33Zm7.26-3.73v4.89h-1.22v-.75c-.15.27-.36.47-.62.62-.26.14-.55.21-.88.21-1.2 0-1.8-.67-1.8-2.02v-2.95h1.25v2.96c0 .35.07.6.21.77s.36.25.66.25c.35 0 .62-.12.83-.34.21-.23.31-.54.31-.92v-2.72h1.26Zm1.9 4.81c-.36-.11-.67-.26-.92-.46l.35-.87c.52.38 1.12.57 1.79.57.29 0 .5-.05.66-.14a.44.44 0 0 0 .22-.4c0-.15-.05-.26-.15-.34-.1-.08-.29-.15-.56-.22l-.8-.18c-.45-.1-.79-.26-1.01-.49s-.33-.52-.33-.88c0-.3.08-.57.25-.79.17-.23.41-.41.71-.54s.66-.19 1.05-.19c.35 0 .68.05 1.01.16.32.11.61.26.85.45l-.35.85c-.51-.37-1.01-.55-1.52-.55-.27 0-.49.05-.64.15s-.23.24-.23.42c0 .13.05.24.15.33s.25.15.46.2l.83.19c.49.11.84.28 1.07.5.23.23.34.53.34.91 0 .45-.18.81-.55 1.08s-.86.4-1.49.4c-.43 0-.83-.05-1.2-.16h.01Z"/></svg>