<svg xmlns="http://www.w3.org/2000/svg" viewBox="0 0 374.18 137.86"><path fill="#fff" d="M201.06 42.66c-.13 0-.21-.08-.25-.25L194.86 7.8c-.04-.13.01-.2.15-.2h5.64c.13 0 .21.07.25.2l3.23 22.77 3.32-22.77c.03-.13.13-.2.31-.2h4.53c.13 0 .21.07.25.2l3.28 22.77 3.27-22.77c.04-.13.12-.2.25-.2h5.59c.17 0 .24.07.2.2l-6 34.61c-.07.1-.16.18-.25.25h-6.09c-.09 0-.19-.08-.25-.25l-2.57-18.09-2.57 18.09c-.04.17-.12.25-.25.25h-6.09.03Zm27.48 0c-.13 0-.2-.08-.2-.25l.05-34.61c0-.13.07-.2.2-.2h16.17c.13 0 .2.08.2.25v5.64c0 .13-.07.2-.2.2h-10.33v7.85h10.33c.13 0 .2.07.2.2l.05 5.69c0 .13-.07.2-.2.2h-10.39v8.81h10.39c.13 0 .2.08.2.25v5.75c0 .13-.07.2-.2.2h-16.28v.01Zm20.89 0c-.17 0-.25-.08-.25-.25l.05-34.61c0-.13.07-.2.2-.2h5.64c.13 0 .2.07.2.2l.05 34.61c0 .17-.07.25-.2.25h-5.69Zm10.39 0c-.13 0-.2-.08-.2-.25l.11-34.61c0-.13.07-.2.2-.2h6.15c.13 0 .25.07.35.2l4.59 6.65 4.59-6.65c.11-.13.21-.2.35-.2h6.2c.13 0 .2.07.2.2l.11 34.61c0 .17-.07.25-.2.25h-5.69c-.13 0-.2-.08-.2-.25l-.05-25.69-5.29 7.65-5.24-7.65-.05 25.69c0 .17-.07.25-.2.25h-5.69Zm25.59-.25 6.25-34.61c.03-.13.12-.2.25-.2h7.31c.13 0 .21.07.25.2l6 34.61c.04.17-.03.25-.2.25h-5.59c-.13 0-.21-.08-.25-.25l-.56-3.68h-6.85l-.56 3.68c-.03.17-.12.25-.25.25h-5.59c-.13 0-.2-.08-.2-.25h-.01Zm7.6-9.07h4.84l-2.07-14.16-.31-1.87-.2 1.87L293 33.34Zm15.93 9.32c-.13 0-.2-.08-.2-.25l.11-34.61c0-.13.07-.2.2-.2h10.17c1.81 0 3.48.44 5.01 1.33 1.5.86 2.76 2.09 3.65 3.57.91 1.49 1.36 3.19 1.36 5.07 0 1.24-.19 2.36-.56 3.35-.37.99-.8 1.83-1.31 2.52s-.96 1.2-1.36 1.53c1.81 2.01 2.72 4.39 2.72 7.11l.05 10.33c0 .17-.08.25-.25.25h-5.69c-.13 0-.2-.05-.2-.15V32.08c0-1.21-.43-2.25-1.28-3.15-.85-.89-1.91-1.33-3.15-1.33h-3.32l-.05 14.81c0 .17-.07.25-.2.25h-5.71Zm5.95-21.11h4.33c1.04 0 1.96-.39 2.77-1.16.81-.77 1.21-1.71 1.21-2.83s-.4-2-1.19-2.77c-.79-.77-1.72-1.16-2.8-1.16h-4.33v7.92Zm18.2 21.11c-.13 0-.2-.08-.2-.25l.05-34.61c0-.13.07-.2.2-.2h16.17c.13 0 .2.08.2.25v5.64c0 .13-.07.2-.2.2h-10.33v7.85h10.33c.13 0 .2.07.2.2l.05 5.69c0 .13-.07.2-.2.2h-10.39v8.81h10.39c.13 0 .2.08.2.25v5.75c0 .13-.07.2-.2.2h-16.28v.01Zm20.79 0c-.13 0-.2-.08-.2-.25l.11-34.61c0-.13.07-.2.2-.2h10.17c1.81 0 3.48.44 5.01 1.33 1.5.86 2.76 2.09 3.65 3.57.91 1.49 1.36 3.19 1.36 5.07 0 1.24-.19 2.36-.56 3.35-.37.99-.8 1.83-1.31 2.52s-.96 1.2-1.36 1.53c1.81 2.01 2.72 4.39 2.72 7.11l.05 10.33c0 .17-.08.25-.25.25h-5.69c-.13 0-.2-.05-.2-.15V32.08c0-1.21-.43-2.25-1.28-3.15-.85-.89-1.91-1.33-3.15-1.33h-3.32l-.05 14.81c0 .17-.07.25-.2.25h-5.71Zm5.95-21.11h4.33c1.04 0 1.96-.39 2.77-1.16.81-.77 1.21-1.71 1.21-2.83s-.4-2-1.19-2.77c-.79-.77-1.72-1.16-2.8-1.16h-4.33v7.92ZM201.07 57.98c-.13 0-.2.08-.2.25l.09 34.56c0 .17.07.25.2.25h5.64c.13 0 .2-.08.2-.25V80.84l7.91 11.99c.11.13.21.2.35.2h5.8c.13 0 .17-.07.11-.2l-8.72-13.91 9.77-20.76c.07-.13-.01-.2-.25-.2h-6.15c-.17 0-.27.07-.31.2l-6.8 14.81-1.76-2.77V58.21c0-.17-.07-.25-.2-.25h-5.69.01v.01Zm21.81 34.81 6.25-34.61c.03-.13.12-.2.25-.2h7.31c.13 0 .21.07.25.2l6 34.61c.04.17-.03.25-.2.25h-5.59c-.13 0-.21-.08-.25-.25l-.56-3.68h-6.85l-.56 3.68c-.03.17-.12.25-.25.25h-5.59c-.13 0-.2-.08-.2-.25h-.01Zm7.6-9.07h4.84l-2.07-14.16-.31-1.87-.2 1.87-2.27 14.16Zm15.93 9.32c-.13 0-.2-.08-.2-.25l.11-34.61c0-.13.07-.2.2-.2h9.67c1.92 0 3.63.47 5.15 1.39 1.48.89 2.71 2.15 3.57 3.65.88 1.51 1.31 3.16 1.31 4.93 0 1.44-.32 2.79-.99 4.03-.65 1.24-1.44 2.25-2.35 3.03.97.96 1.74 2.11 2.27 3.37.54 1.27.81 2.64.81 4.03 0 1.95-.47 3.73-1.41 5.35-.92 1.59-2.23 2.91-3.8 3.85-1.59.96-3.36 1.44-5.32 1.44h-9.03.01Zm5.89-6.15h3.12c1.21 0 2.25-.44 3.12-1.33.87-.89 1.31-1.95 1.31-3.15s-.44-2.25-1.31-3.12c-.87-.87-1.91-1.31-3.12-1.31h-3.08l-.05 8.92h.01v-.01Zm.05-15.01h3.83c1.17 0 2.12-.41 2.84-1.24.72-.83 1.08-1.72 1.08-2.69 0-1.08-.39-2-1.16-2.8-.77-.79-1.69-1.19-2.77-1.19h-3.83v7.91h.01v.01Zm15.49 20.91 6.25-34.61c.03-.13.12-.2.25-.2h7.31c.13 0 .21.07.25.2l6 34.61c.04.17-.03.25-.2.25h-5.59c-.13 0-.21-.08-.25-.25l-.56-3.68h-6.85l-.56 3.68c-.03.17-.12.25-.25.25h-5.59c-.13 0-.2-.08-.2-.25h-.01Zm7.6-9.07h4.84l-2.07-14.16-.31-1.87-.2 1.87-2.27 14.16Zm15.95 9.32c-.13 0-.2-.08-.2-.25l.11-34.61c0-.13.07-.2.2-.2h10.17c1.81 0 3.48.44 5.01 1.33 1.5.86 2.76 2.09 3.65 3.57.91 1.49 1.36 3.19 1.36 5.07 0 1.24-.19 2.36-.56 3.35-.37.99-.8 1.83-1.31 2.52s-.96 1.2-1.36 1.53c1.81 2.01 2.72 4.39 2.72 7.11l.05 10.33c0 .17-.08.25-.25.25h-5.69c-.13 0-.2-.05-.2-.15V82.46c0-1.21-.43-2.25-1.28-3.15-.85-.89-1.91-1.33-3.15-1.33h-3.32l-.05 14.81c0 .17-.07.25-.2.25h-5.71Zm5.95-21.11h4.33c1.04 0 1.96-.39 2.77-1.16.81-.77 1.21-1.71 1.21-2.83s-.4-2-1.19-2.77c-.79-.77-1.72-1.16-2.8-1.16h-4.33v7.92Zm18.2 21.11c-.13 0-.2-.08-.2-.25l.05-34.61c0-.13.07-.2.2-.2h16.17c.13 0 .2.08.2.25v5.64c0 .13-.07.2-.2.2h-10.33v7.85h10.33c.13 0 .2.07.2.2l.05 5.69c0 .13-.07.2-.2.2h-10.39v8.81h10.39c.13 0 .2.08.2.25v5.75c0 .13-.07.2-.2.2h-16.28Zm26.39 0c-.13 0-.2-.08-.2-.25V64.07h-6.55c-.17 0-.25-.08-.25-.25l.05-5.64c0-.13.07-.2.2-.2h19.15c.17 0 .25.07.25.2v5.64c0 .17-.07.25-.2.25h-6.6l.05 28.72c0 .17-.07.25-.2.25h-5.71Z"/><path fill="#fff" d="M361.07 93.05c-.13 0-.2-.08-.2-.25V64.08h-6.55c-.17 0-.25-.08-.25-.25l.05-5.64c0-.13.07-.2.2-.2h19.15c.17 0 .25.07.25.2v5.64c0 .17-.07.25-.2.25h-6.6l.05 28.72c0 .17-.07.25-.2.25h-5.71ZM121.18 104.3c.51.13.83.68.68 1.19-6.8 23.4-31.11 37.17-54.76 30.83-23.65-6.33-37.81-30.41-32.01-54.08a.95.95 0 0 1 1.17-.69l84.92 22.76ZM76.27 36.37l61.16 35.31a.568.568 0 0 0 .85-.5V.57c0-.31-.26-.57-.57-.57-.1 0-.2.03-.28.08L76.27 35.39c-.37.21-.37.76 0 .99ZM56 7.6H.57a.57.57 0 0 0-.57.57V63.6c0 .32.26.57.57.57H56c.32 0 .57-.26.57-.57V8.17A.57.57 0 0 0 56 7.6Z"/></svg>