<svg xmlns="http://www.w3.org/2000/svg" fill="none" viewBox="0 0 378 140"><path fill="#000" d="M202.95 43.654c-.133 0-.213-.08-.253-.253L196.75 8.787c-.04-.133.013-.2.146-.2h5.641c.133 0 .213.067.253.2l3.227 22.774 3.32-22.774c.026-.133.133-.2.306-.2h4.534c.133 0 .213.067.253.2l3.28 22.774 3.267-22.774c.04-.133.12-.2.253-.2h5.587c.173 0 .24.067.2.2l-6 34.614a1.1 1.1 0 0 1-.253.253h-6.094c-.093 0-.187-.08-.253-.253l-2.574-18.094-2.573 18.094c-.04.173-.12.253-.253.253h-6.094.027ZM230.43 43.654c-.133 0-.2-.08-.2-.253l.054-34.614c0-.133.066-.2.2-.2h16.173c.134 0 .2.08.2.253v5.64c0 .134-.066.2-.2.2h-10.333v7.854h10.333c.134 0 .2.067.2.2l.054 5.693c0 .134-.067.2-.2.2h-10.387v8.814h10.387c.133 0 .2.08.2.253v5.747c0 .133-.067.2-.2.2H230.43v.013ZM251.324 43.654c-.173 0-.253-.08-.253-.253l.053-34.614c0-.133.067-.2.2-.2h5.64c.133 0 .2.067.2.2l.053 34.614c0 .173-.066.253-.2.253h-5.693ZM261.711 43.654c-.133 0-.2-.08-.2-.253l.107-34.614c0-.133.066-.2.2-.2h6.146c.134 0 .254.067.347.2l4.587 6.653 4.586-6.653c.107-.133.214-.2.347-.2h6.2c.134 0 .2.067.2.2l.107 34.614c0 .173-.067.253-.2.253h-5.694c-.133 0-.2-.08-.2-.253l-.053-25.694-5.293 7.653-5.24-7.653-.054 25.694c0 .173-.066.253-.2.253h-5.693ZM287.298 43.4l6.253-34.613c.027-.133.12-.2.254-.2h7.307c.133 0 .213.067.253.2l6 34.614c.04.173-.027.253-.2.253h-5.587c-.133 0-.213-.08-.253-.253l-.56-3.68h-6.854l-.56 3.68c-.026.173-.12.253-.253.253h-5.587c-.133 0-.2-.08-.2-.253h-.013Zm7.6-9.066h4.84l-2.067-14.16-.306-1.867-.2 1.867-2.267 14.16ZM310.832 43.654c-.134 0-.2-.08-.2-.253l.106-34.614c0-.133.067-.2.2-.2h10.174c1.813 0 3.48.44 5.013 1.333a10.2 10.2 0 0 1 3.654 3.574c.906 1.493 1.36 3.186 1.36 5.066 0 1.24-.187 2.36-.56 3.347-.374.987-.8 1.827-1.307 2.52-.507.694-.96 1.2-1.36 1.534 1.813 2.013 2.72 4.386 2.72 7.106l.053 10.334c0 .173-.08.253-.253.253h-5.693c-.134 0-.2-.053-.2-.147V33.081c0-1.214-.427-2.254-1.28-3.147-.854-.893-1.907-1.333-3.147-1.333h-3.32l-.054 14.813c0 .173-.066.253-.2.253h-5.693l-.013-.013Zm5.946-21.107h4.334c1.04 0 1.96-.387 2.773-1.16.814-.773 1.214-1.707 1.214-2.827 0-1.12-.4-2-1.187-2.773-.787-.773-1.72-1.16-2.8-1.16h-4.334v7.92ZM334.979 43.654c-.134 0-.2-.08-.2-.253l.053-34.614c0-.133.067-.2.2-.2h16.174c.133 0 .2.08.2.253v5.64c0 .134-.067.2-.2.2h-10.334v7.854h10.334c.133 0 .2.067.2.2l.053 5.693c0 .134-.067.2-.2.2h-10.387v8.814h10.387c.133 0 .2.08.2.253v5.747c0 .133-.067.2-.2.2h-16.28v.013ZM355.766 43.654c-.134 0-.2-.08-.2-.253l.106-34.614c0-.133.067-.2.2-.2h10.174c1.813 0 3.48.44 5.013 1.333a10.2 10.2 0 0 1 3.654 3.574c.906 1.493 1.36 3.186 1.36 5.066 0 1.24-.187 2.36-.56 3.347-.374.987-.8 1.827-1.307 2.52-.507.694-.96 1.2-1.36 1.534 1.813 2.013 2.72 4.386 2.72 7.106l.053 10.334c0 .173-.08.253-.253.253h-5.693c-.134 0-.2-.053-.2-.147V33.081c0-1.214-.427-2.254-1.28-3.147-.854-.893-1.907-1.333-3.147-1.333h-3.32l-.054 14.813c0 .173-.066.253-.2.253h-5.693l-.013-.013Zm5.946-21.107h4.334c1.04 0 1.96-.387 2.773-1.16.814-.773 1.214-1.707 1.214-2.827 0-1.12-.4-2-1.187-2.773-.787-.773-1.72-1.16-2.8-1.16h-4.334v7.92ZM202.95 58.974c-.133 0-.2.08-.2.254l.093 34.56c0 .174.067.254.2.254h5.64c.134 0 .2-.08.2-.254V81.842l7.907 11.986c.107.134.213.2.347.2h5.8c.133 0 .173-.066.107-.2l-8.721-13.907 9.774-20.76c.067-.133-.013-.2-.253-.2h-6.147c-.174 0-.267.067-.307.2l-6.8 14.814-1.76-2.774V59.215c0-.174-.067-.254-.2-.254h-5.693l.013.014ZM224.764 93.788l6.253-34.614c.027-.133.12-.2.253-.2h7.307c.134 0 .214.067.254.2l6 34.614c.04.174-.027.254-.2.254h-5.587c-.133 0-.213-.08-.253-.254l-.56-3.68h-6.854l-.56 3.68c-.027.174-.12.254-.253.254h-5.587c-.133 0-.2-.08-.2-.254h-.013Zm7.6-9.067h4.84l-2.067-14.16-.307-1.867-.2 1.867-2.266 14.16ZM248.297 94.042c-.133 0-.2-.08-.2-.254l.107-34.614c0-.133.067-.2.2-.2h9.667c1.92 0 3.627.467 5.147 1.387a10.202 10.202 0 0 1 3.573 3.653c.88 1.507 1.307 3.16 1.307 4.934 0 1.44-.32 2.787-.987 4.027-.653 1.24-1.44 2.253-2.347 3.026a10.354 10.354 0 0 1 2.267 3.374 10.4 10.4 0 0 1 .813 4.026c0 1.947-.466 3.734-1.413 5.347a10.848 10.848 0 0 1-3.8 3.854c-1.587.96-3.36 1.44-5.32 1.44h-9.027.013Zm5.894-6.147h3.12c1.213 0 2.253-.44 3.12-1.334.867-.893 1.307-1.946 1.307-3.146s-.44-2.254-1.307-3.12c-.867-.867-1.907-1.307-3.12-1.307h-3.08l-.054 8.92.014-.013Zm.053-15.014h3.827c1.173 0 2.12-.413 2.84-1.24.72-.826 1.08-1.72 1.08-2.693 0-1.08-.387-2-1.16-2.8-.774-.787-1.694-1.187-2.774-1.187h-3.826v7.907l.013.013ZM269.738 93.788l6.253-34.614c.027-.133.12-.2.253-.2h7.307c.134 0 .214.067.254.2l6 34.614c.04.174-.027.254-.2.254h-5.587c-.133 0-.213-.08-.253-.254l-.56-3.68h-6.854l-.56 3.68c-.027.174-.12.254-.253.254h-5.587c-.133 0-.2-.08-.2-.254h-.013Zm7.6-9.067h4.84l-2.067-14.16-.306-1.867-.201 1.867-2.266 14.16ZM293.285 94.042c-.134 0-.2-.08-.2-.254l.106-34.614c0-.133.067-.2.2-.2h10.174c1.813 0 3.48.44 5.013 1.334a10.202 10.202 0 0 1 3.654 3.573c.906 1.493 1.36 3.187 1.36 5.067 0 1.24-.187 2.36-.56 3.347-.374.986-.8 1.826-1.307 2.52-.507.693-.96 1.2-1.36 1.533 1.813 2.013 2.72 4.387 2.72 7.107l.053 10.333c0 .174-.08.254-.253.254h-5.693c-.134 0-.2-.054-.2-.147V83.468c0-1.213-.427-2.253-1.28-3.147-.854-.893-1.907-1.333-3.147-1.333h-3.32l-.054 14.814c0 .173-.066.253-.2.253h-5.693l-.013-.013Zm5.946-21.107h4.334c1.04 0 1.96-.387 2.773-1.16.814-.774 1.214-1.707 1.214-2.827 0-1.12-.4-2-1.187-2.773-.787-.774-1.72-1.16-2.8-1.16h-4.334v7.92ZM317.432 94.042c-.134 0-.2-.08-.2-.254l.053-34.614c0-.133.067-.2.2-.2h16.174c.133 0 .2.08.2.254v5.64c0 .133-.067.2-.2.2h-10.334v7.853h10.334c.133 0 .2.067.2.2l.053 5.694c0 .133-.067.2-.2.2h-10.387v8.813h10.387c.133 0 .2.08.2.254v5.746c0 .134-.067.2-.2.2h-16.28v.014ZM343.819 94.042c-.134 0-.2-.08-.2-.254v-28.72h-6.547c-.173 0-.253-.08-.253-.254l.053-5.64c0-.133.067-.2.2-.2h19.147c.173 0 .253.067.253.2v5.64c0 .174-.066.254-.2.254h-6.6l.054 28.72c0 .174-.067.254-.2.254h-5.707Z"/><path fill="#000" d="M362.966 94.042c-.134 0-.2-.08-.2-.254v-28.72h-6.547c-.173 0-.253-.08-.253-.254l.053-5.64c0-.133.067-.2.2-.2h19.147c.173 0 .253.067.253.2v5.64c0 .174-.066.254-.2.254h-6.6l.054 28.72c0 .174-.067.254-.2.254h-5.707Z"/><path fill="#E44126" d="M123.069 105.295c.506.134.826.68.68 1.187-6.8 23.4-31.108 37.174-54.761 30.827-23.654-6.333-37.814-30.414-32.014-54.08.12-.52.667-.828 1.173-.694l84.922 22.76Z"/><path fill="#144E8B" d="m78.161 37.36 61.161 35.308a.572.572 0 0 0 .854-.493V1.56a.57.57 0 0 0-.854-.493l-61.16 35.307c-.374.213-.374.76 0 .987Z"/><path fill="#FD0" d="M57.894 8.587H2.467a.573.573 0 0 0-.574.573v55.428c0 .317.257.573.574.573h55.427a.573.573 0 0 0 .574-.573V9.16a.573.573 0 0 0-.574-.573Z"/></svg>