<?xml version="1.0" encoding="UTF-8" standalone="no"?>
<!-- Created with Keyshape -->
<svg xmlns="http://www.w3.org/2000/svg" id="a" viewBox="0 0 283.46 104.88">
    <style>
@keyframes a0_t { 0% { transform: translate(147.550256px,6.44px); } 40% { transform: translate(147.550256px,6.44px); animation-timing-function: cubic-bezier(1,0.25,0,0.8); } 100% { transform: translate(147.550256px,6.44px); } }
@keyframes a0_o { 0% { opacity: 0; } 40% { opacity: 0; animation-timing-function: cubic-bezier(1,0.25,0,0.8); } 90% { opacity: 1; } 100% { opacity: 1; } }
@keyframes a1_fo { 0% { fill-opacity: 1; } 40% { fill-opacity: 1; animation-timing-function: cubic-bezier(1,0.25,0,0.8); } 90% { fill-opacity: 1; } 100% { fill-opacity: 1; } }
@keyframes a2_fo { 0% { fill-opacity: 1; } 40% { fill-opacity: 1; animation-timing-function: cubic-bezier(1,0.25,0,0.8); } 90% { fill-opacity: 1; } 100% { fill-opacity: 1; } }
@keyframes a3_fo { 0% { fill-opacity: 1; } 40% { fill-opacity: 1; animation-timing-function: cubic-bezier(1,0.25,0,0.8); } 90% { fill-opacity: 1; } 100% { fill-opacity: 1; } }
@keyframes a4_fo { 0% { fill-opacity: 1; } 40% { fill-opacity: 1; animation-timing-function: cubic-bezier(1,0.25,0,0.8); } 90% { fill-opacity: 1; } 100% { fill-opacity: 1; } }
@keyframes a5_fo { 0% { fill-opacity: 1; } 40% { fill-opacity: 1; animation-timing-function: cubic-bezier(1,0.25,0,0.8); } 90% { fill-opacity: 1; } 100% { fill-opacity: 1; } }
@keyframes a6_fo { 0% { fill-opacity: 1; } 40% { fill-opacity: 1; animation-timing-function: cubic-bezier(1,0.25,0,0.8); } 90% { fill-opacity: 1; } 100% { fill-opacity: 1; } }
@keyframes a7_fo { 0% { fill-opacity: 1; } 40% { fill-opacity: 1; animation-timing-function: cubic-bezier(1,0.25,0,0.8); } 90% { fill-opacity: 1; } 100% { fill-opacity: 1; } }
@keyframes a8_fo { 0% { fill-opacity: 1; } 40% { fill-opacity: 1; animation-timing-function: cubic-bezier(1,0.25,0,0.8); } 90% { fill-opacity: 1; } 100% { fill-opacity: 1; } }
@keyframes a9_o { 0% { opacity: 0; } 50% { opacity: 0; animation-timing-function: cubic-bezier(1,0.25,0,0.8); } 100% { opacity: 1; } }
@keyframes a10_fo { 0% { fill-opacity: 1; } 50% { fill-opacity: 1; animation-timing-function: cubic-bezier(1,0.25,0,0.8); } 100% { fill-opacity: 1; } }
@keyframes a11_fo { 0% { fill-opacity: 1; } 50% { fill-opacity: 1; animation-timing-function: cubic-bezier(1,0.25,0,0.8); } 100% { fill-opacity: 1; } }
@keyframes a12_fo { 0% { fill-opacity: 1; } 50% { fill-opacity: 1; animation-timing-function: cubic-bezier(1,0.25,0,0.8); } 100% { fill-opacity: 1; } }
@keyframes a13_fo { 0% { fill-opacity: 1; } 50% { fill-opacity: 1; animation-timing-function: cubic-bezier(1,0.25,0,0.8); } 100% { fill-opacity: 1; } }
@keyframes a14_fo { 0% { fill-opacity: 1; } 50% { fill-opacity: 1; animation-timing-function: cubic-bezier(1,0.25,0,0.8); } 100% { fill-opacity: 1; } }
@keyframes a15_fo { 0% { fill-opacity: 1; } 50% { fill-opacity: 1; animation-timing-function: cubic-bezier(1,0.25,0,0.8); } 100% { fill-opacity: 1; } }
@keyframes a16_fo { 0% { fill-opacity: 1; } 50% { fill-opacity: 1; animation-timing-function: cubic-bezier(1,0.25,0,0.8); } 100% { fill-opacity: 1; } }
@keyframes a17_fo { 0% { fill-opacity: 1; } 50% { fill-opacity: 1; animation-timing-function: cubic-bezier(1,0.25,0,0.8); } 100% { fill-opacity: 1; } }
@keyframes a18_fo { 0% { fill-opacity: 0; } 25% { fill-opacity: 0; animation-timing-function: cubic-bezier(1,-0.51,0,1.69); } 75% { fill-opacity: 1; } 100% { fill-opacity: 1; } }
@keyframes a18_d { 0% { d: path('M76.5989,80.9205C76.7953,80.9722,76.9194,81.1842,76.8626,81.3806C74.2261,90.4529,64.8024,95.7929,55.6319,93.3322C46.4613,90.8768,40.9714,81.5408,43.2201,72.3652C43.2667,72.1635,43.4785,72.0447,43.675,72.0964L76.5989,80.9205Z'); } 25% { d: path('M76.5989,80.9205C76.7953,80.9722,76.9194,81.1842,76.8626,81.3806C74.2261,90.4529,64.8024,95.7929,55.6319,93.3322C46.4613,90.8768,40.9714,81.5408,43.2201,72.3652C43.2667,72.1635,43.4785,72.0447,43.675,72.0964L76.5989,80.9205Z'); animation-timing-function: cubic-bezier(1,-0.51,0,1.69); } 75% { d: path('M92.3,78.97C92.68,79.07,92.92,79.48,92.81,79.86C87.71,97.41,69.48,107.74,51.74,102.98C34,98.23,23.38,80.17,27.73,62.42C27.82,62.03,28.23,61.8,28.61,61.9L92.3,78.97Z'); } 100% { d: path('M92.3,78.97C92.68,79.07,92.92,79.48,92.81,79.86C87.71,97.41,69.48,107.74,51.74,102.98C34,98.23,23.38,80.17,27.73,62.42C27.82,62.03,28.23,61.8,28.61,61.9L92.3,78.97Z'); } }
@keyframes a19_fo { 0% { fill-opacity: 0; } 12.5% { fill-opacity: 0; animation-timing-function: cubic-bezier(1,-0.51,0,1.69); } 62.5% { fill-opacity: 1; } 100% { fill-opacity: 1; } }
@keyframes a19_d { 0% { d: path('M71.622,27.8122L91.7294,39.4199C91.8522,39.49,92.01,39.4023,92.01,39.2576L92.01,16.0424C92.01,15.8977,91.8566,15.81,91.7294,15.8801L71.622,27.4878C71.4993,27.558,71.4993,27.7376,71.622,27.8122Z'); } 12.5% { d: path('M71.622,27.8122L91.7294,39.4199C91.8522,39.49,92.01,39.4023,92.01,39.2576L92.01,16.0424C92.01,15.8977,91.8566,15.81,91.7294,15.8801L71.622,27.4878C71.4993,27.558,71.4993,27.7376,71.622,27.8122Z'); animation-timing-function: cubic-bezier(1,-0.51,0,1.69); } 62.5% { d: path('M59.9941,27.998L103.141,52.9063C103.405,53.0568,103.743,52.8686,103.743,52.5581L103.743,2.74187C103.743,2.43141,103.414,2.24319,103.141,2.39371L59.9941,27.302C59.7308,27.4525,59.7308,27.8381,59.9941,27.998Z'); } 100% { d: path('M59.9941,27.998L103.141,52.9063C103.405,53.0568,103.743,52.8686,103.743,52.5581L103.743,2.74187C103.743,2.43141,103.414,2.24319,103.141,2.39371L59.9941,27.302C59.7308,27.4525,59.7308,27.8381,59.9941,27.998Z'); } }
@keyframes a20_t { 0% { transform: translate(10.42px,15.44px); animation-timing-function: cubic-bezier(1,-0.51,0,1.69); } 50% { transform: translate(1.49px,6.51px); } 100% { transform: translate(1.49px,6.51px); } }
@keyframes a20_fo { 0% { fill-opacity: 0; animation-timing-function: cubic-bezier(1,-0.51,0,1.69); } 50% { fill-opacity: 1; } 100% { fill-opacity: 1; } }
@keyframes a20_w { 0% { width: 24.43px; animation-timing-function: cubic-bezier(1,-0.51,0,1.69); } 50% { width: 42.29px; } 100% { width: 42.29px; } }
@keyframes a20_h { 0% { height: 24.43px; animation-timing-function: cubic-bezier(1,-0.51,0,1.69); } 50% { height: 42.29px; } 100% { height: 42.29px; } }
    </style>
    <g opacity="0" transform="translate(214.8,19.595) translate(-67.2499,-13.155)" style="animation: 4s linear both a0_t, 4s linear both a0_o;">
        <path d="M152.21,32.74C152.11,32.74,152.05,32.68,152.02,32.55L147.56,6.59C147.53,6.49,147.57,6.44,147.67,6.44L151.9,6.44C152,6.44,152.06,6.49,152.09,6.59L154.51,23.67L157,6.59C157.02,6.49,157.1,6.44,157.23,6.44L160.63,6.44C160.73,6.44,160.79,6.49,160.82,6.59L163.28,23.67L165.73,6.59C165.76,6.49,165.82,6.44,165.92,6.44L170.11,6.44C170.24,6.44,170.29,6.49,170.26,6.59L165.76,32.55C165.73,32.6,165.67,32.66,165.57,32.74L161,32.74C160.93,32.74,160.86,32.68,160.81,32.55L158.88,18.98L156.95,32.55C156.92,32.68,156.86,32.74,156.76,32.74L152.19,32.74Z" fill-opacity="1" transform="translate(11.3591,13.15) translate(-158.909,-19.59)" style="animation: 4s linear both a1_fo;"/>
        <path d="M172.82,32.74C172.72,32.74,172.67,32.68,172.67,32.55L172.71,6.59C172.71,6.49,172.76,6.44,172.86,6.44L184.99,6.44C185.09,6.44,185.14,6.5,185.14,6.63L185.14,10.86C185.14,10.96,185.09,11.01,184.99,11.01L177.24,11.01L177.24,16.9L184.99,16.9C185.09,16.9,185.14,16.95,185.14,17.05L185.18,21.32C185.18,21.42,185.13,21.47,185.03,21.47L177.24,21.47L177.24,28.08L185.03,28.08C185.13,28.08,185.18,28.14,185.18,28.27L185.18,32.58C185.18,32.68,185.13,32.73,185.03,32.73L172.82,32.73Z" fill-opacity="1" transform="translate(31.3747,13.15) translate(-178.925,-19.59)" style="animation: 4s linear both a2_fo;"/>
        <path d="M188.49,32.74C188.36,32.74,188.3,32.68,188.3,32.55L188.34,6.59C188.34,6.49,188.39,6.44,188.49,6.44L192.72,6.44C192.82,6.44,192.87,6.49,192.87,6.59L192.91,32.55C192.91,32.68,192.86,32.74,192.76,32.74L188.49,32.74Z" fill-opacity="1" transform="translate(43.0547,13.15) translate(-190.605,-19.59)" style="animation: 4s linear both a3_fo;"/>
        <path d="M196.28,32.74C196.18,32.74,196.13,32.68,196.13,32.55L196.21,6.59C196.21,6.49,196.26,6.44,196.36,6.44L200.97,6.44C201.07,6.44,201.16,6.49,201.23,6.59L204.67,11.58L208.11,6.59C208.19,6.49,208.27,6.44,208.37,6.44L213.02,6.44C213.12,6.44,213.17,6.49,213.17,6.59L213.25,32.55C213.25,32.68,213.2,32.74,213.1,32.74L208.83,32.74C208.73,32.74,208.68,32.68,208.68,32.55L208.64,13.28L204.67,19.02L200.74,13.28L200.7,32.55C200.7,32.68,200.65,32.74,200.55,32.74L196.28,32.74Z" fill-opacity="1" transform="translate(57.1397,13.15) translate(-204.69,-19.59)" style="animation: 4s linear both a4_fo;"/>
        <path d="M215.47,32.55L220.16,6.59C220.18,6.49,220.25,6.44,220.35,6.44L225.83,6.44C225.93,6.44,225.99,6.49,226.02,6.59L230.52,32.55C230.55,32.68,230.5,32.74,230.37,32.74L226.18,32.74C226.08,32.74,226.02,32.68,225.99,32.55L225.57,29.79L220.43,29.79L220.01,32.55C219.99,32.68,219.92,32.74,219.82,32.74L215.63,32.74C215.53,32.74,215.48,32.68,215.48,32.55ZM221.17,25.75L224.8,25.75L223.25,15.13L223.02,13.73L222.87,15.13L221.17,25.75Z" fill-opacity="1" transform="translate(75.449,13.15) translate(-222.999,-19.59)" style="animation: 4s linear both a5_fo;"/>
        <path d="M233.12,32.74C233.02,32.74,232.97,32.68,232.97,32.55L233.05,6.59C233.05,6.49,233.1,6.44,233.2,6.44L240.83,6.44C242.19,6.44,243.44,6.77,244.59,7.44C245.74,8.11,246.65,9,247.33,10.12C248.01,11.24,248.35,12.51,248.35,13.92C248.35,14.85,248.21,15.69,247.93,16.43C247.65,17.17,247.33,17.8,246.95,18.32C246.57,18.84,246.23,19.22,245.93,19.47C247.29,20.98,247.97,22.76,247.97,24.8L248.01,32.55C248.01,32.68,247.95,32.74,247.82,32.74L243.55,32.74C243.45,32.74,243.4,32.7,243.4,32.63L243.4,24.81C243.4,23.9,243.08,23.12,242.44,22.45C241.8,21.78,241.01,21.45,240.08,21.45L237.59,21.45L237.55,32.56C237.55,32.69,237.5,32.75,237.4,32.75L233.13,32.75ZM237.58,16.91L240.83,16.91C241.61,16.91,242.3,16.62,242.91,16.04C243.52,15.46,243.82,14.76,243.82,13.92C243.82,13.08,243.52,12.42,242.93,11.84C242.34,11.26,241.64,10.97,240.83,10.97L237.58,10.97L237.58,16.9Z" fill-opacity="1" transform="translate(93.1097,13.155) translate(-240.66,-19.595)" style="animation: 4s linear both a6_fo;"/>
        <path d="M251.23,32.74C251.13,32.74,251.08,32.68,251.08,32.55L251.12,6.59C251.12,6.49,251.17,6.44,251.27,6.44L263.4,6.44C263.5,6.44,263.55,6.5,263.55,6.63L263.55,10.86C263.55,10.96,263.5,11.01,263.4,11.01L255.65,11.01L255.65,16.9L263.4,16.9C263.5,16.9,263.55,16.95,263.55,17.05L263.59,21.32C263.59,21.42,263.54,21.47,263.44,21.47L255.65,21.47L255.65,28.08L263.44,28.08C263.54,28.08,263.59,28.14,263.59,28.27L263.59,32.58C263.59,32.68,263.54,32.73,263.44,32.73L251.23,32.73Z" fill-opacity="1" transform="translate(109.785,13.15) translate(-257.335,-19.59)" style="animation: 4s linear both a7_fo;"/>
        <path d="M266.82,32.74C266.72,32.74,266.67,32.68,266.67,32.55L266.75,6.59C266.75,6.49,266.8,6.44,266.9,6.44L274.53,6.44C275.89,6.44,277.14,6.77,278.29,7.44C279.44,8.11,280.35,9,281.03,10.12C281.71,11.24,282.05,12.51,282.05,13.92C282.05,14.85,281.91,15.69,281.63,16.43C281.35,17.17,281.03,17.8,280.65,18.32C280.27,18.84,279.93,19.22,279.63,19.47C280.99,20.98,281.67,22.76,281.67,24.8L281.71,32.55C281.71,32.68,281.65,32.74,281.52,32.74L277.25,32.74C277.15,32.74,277.1,32.7,277.1,32.63L277.1,24.81C277.1,23.9,276.78,23.12,276.14,22.45C275.5,21.78,274.71,21.45,273.78,21.45L271.29,21.45L271.25,32.56C271.25,32.69,271.2,32.75,271.1,32.75L266.83,32.75ZM271.28,16.91L274.53,16.91C275.31,16.91,276,16.62,276.61,16.04C277.22,15.46,277.52,14.76,277.52,13.92C277.52,13.08,277.22,12.42,276.63,11.84C276.04,11.26,275.34,10.97,274.53,10.97L271.28,10.97L271.28,16.9Z" fill-opacity="1" transform="translate(126.81,13.155) translate(-274.36,-19.595)" style="animation: 4s linear both a8_fo;"/>
    </g>
    <g opacity="0" transform="translate(216.885,57.38) translate(-64.825,-13.16)" style="animation: 4s linear both a9_o;">
        <path d="M152.21,44.23C152.11,44.23,152.06,44.29,152.06,44.42L152.13,70.34C152.13,70.47,152.18,70.53,152.28,70.53L156.51,70.53C156.61,70.53,156.66,70.47,156.66,70.34L156.66,61.38L162.59,70.37C162.67,70.47,162.75,70.52,162.85,70.52L167.2,70.52C167.3,70.52,167.33,70.47,167.28,70.37L160.74,59.94L168.07,44.37C168.12,44.27,168.06,44.22,167.88,44.22L163.27,44.22C163.14,44.22,163.07,44.27,163.04,44.37L157.94,55.48L156.62,53.4L156.62,44.41C156.62,44.28,156.57,44.22,156.47,44.22L152.2,44.22Z" fill-opacity="1" transform="translate(8.01346,13.155) translate(-160.073,-57.375)" style="animation: 4s linear both a10_fo;"/>
        <path d="M168.57,70.34L173.26,44.38C173.28,44.28,173.35,44.23,173.45,44.23L178.93,44.23C179.03,44.23,179.09,44.28,179.12,44.38L183.62,70.34C183.65,70.47,183.6,70.53,183.47,70.53L179.28,70.53C179.18,70.53,179.12,70.47,179.09,70.34L178.67,67.58L173.53,67.58L173.11,70.34C173.09,70.47,173.02,70.53,172.92,70.53L168.73,70.53C168.63,70.53,168.58,70.47,168.58,70.34ZM174.27,63.54L177.9,63.54L176.35,52.92L176.12,51.52L175.97,52.92L174.27,63.54Z" fill-opacity="1" transform="translate(24.0392,13.16) translate(-176.099,-57.38)" style="animation: 4s linear both a11_fo;"/>
        <path d="M186.22,70.53C186.12,70.53,186.07,70.47,186.07,70.34L186.15,44.38C186.15,44.28,186.2,44.23,186.3,44.23L193.55,44.23C194.99,44.23,196.27,44.58,197.41,45.27C198.54,45.96,199.44,46.88,200.09,48.01C200.75,49.14,201.07,50.38,201.07,51.71C201.07,52.79,200.83,53.8,200.33,54.73C199.84,55.66,199.25,56.42,198.57,57C199.3,57.73,199.87,58.57,200.27,59.53C200.67,60.49,200.88,61.5,200.88,62.55C200.88,64.01,200.53,65.35,199.82,66.56C199.11,67.77,198.16,68.73,196.97,69.45C195.78,70.17,194.45,70.53,192.98,70.53L186.21,70.53ZM190.64,65.92L192.98,65.92C193.89,65.92,194.67,65.59,195.32,64.92C195.97,64.25,196.3,63.46,196.3,62.56C196.3,61.66,195.97,60.87,195.32,60.22C194.67,59.57,193.89,59.24,192.98,59.24L190.67,59.24L190.63,65.93ZM190.68,54.66L193.55,54.66C194.43,54.66,195.14,54.35,195.68,53.73C196.22,53.11,196.49,52.44,196.49,51.71C196.49,50.9,196.2,50.21,195.62,49.61C195.04,49.02,194.35,48.72,193.54,48.72L190.67,48.72L190.67,54.65Z" fill-opacity="1" transform="translate(41.51,13.16) translate(-193.57,-57.38)" style="animation: 4s linear both a12_fo;"/>
        <path d="M202.3,70.34L206.99,44.38C207.01,44.28,207.08,44.23,207.18,44.23L212.66,44.23C212.76,44.23,212.82,44.28,212.85,44.38L217.35,70.34C217.38,70.47,217.33,70.53,217.2,70.53L213.01,70.53C212.91,70.53,212.85,70.47,212.82,70.34L212.4,67.58L207.26,67.58L206.84,70.34C206.82,70.47,206.75,70.53,206.65,70.53L202.46,70.53C202.36,70.53,202.31,70.47,202.31,70.34ZM208,63.54L211.63,63.54L210.08,52.92L209.85,51.52L209.7,52.92L208,63.54Z" fill-opacity="1" transform="translate(57.7692,13.16) translate(-209.829,-57.38)" style="animation: 4s linear both a13_fo;"/>
        <path d="M219.96,70.53C219.86,70.53,219.81,70.47,219.81,70.34L219.89,44.38C219.89,44.28,219.94,44.23,220.04,44.23L227.67,44.23C229.03,44.23,230.28,44.56,231.43,45.23C232.58,45.9,233.49,46.79,234.17,47.91C234.85,49.03,235.19,50.3,235.19,51.71C235.19,52.64,235.05,53.48,234.77,54.22C234.49,54.96,234.17,55.59,233.79,56.11C233.41,56.63,233.07,57.01,232.77,57.26C234.13,58.77,234.81,60.55,234.81,62.59L234.85,70.34C234.85,70.47,234.79,70.53,234.66,70.53L230.39,70.53C230.29,70.53,230.24,70.49,230.24,70.42L230.24,62.6C230.24,61.69,229.92,60.91,229.28,60.24C228.64,59.57,227.85,59.24,226.92,59.24L224.43,59.24L224.39,70.35C224.39,70.48,224.34,70.54,224.24,70.54L219.97,70.54ZM224.42,54.7L227.67,54.7C228.45,54.7,229.14,54.41,229.75,53.83C230.36,53.25,230.66,52.55,230.66,51.71C230.66,50.87,230.36,50.21,229.77,49.63C229.18,49.05,228.48,48.76,227.67,48.76L224.42,48.76L224.42,54.69Z" fill-opacity="1" transform="translate(75.44,13.165) translate(-227.5,-57.385)" style="animation: 4s linear both a14_fo;"/>
        <path d="M238.07,70.53C237.97,70.53,237.92,70.47,237.92,70.34L237.96,44.38C237.96,44.28,238.01,44.23,238.11,44.23L250.24,44.23C250.34,44.23,250.39,44.29,250.39,44.42L250.39,48.65C250.39,48.75,250.34,48.8,250.24,48.8L242.49,48.8L242.49,54.69L250.24,54.69C250.34,54.69,250.39,54.74,250.39,54.84L250.43,59.11C250.43,59.21,250.38,59.26,250.28,59.26L242.49,59.26L242.49,65.87L250.28,65.87C250.38,65.87,250.43,65.93,250.43,66.06L250.43,70.37C250.43,70.47,250.38,70.52,250.28,70.52L238.07,70.52Z" fill-opacity="1" transform="translate(92.115,13.16) translate(-244.175,-57.38)" style="animation: 4s linear both a15_fo;"/>
        <path d="M257.86,70.53C257.76,70.53,257.71,70.47,257.71,70.34L257.71,48.8L252.8,48.8C252.67,48.8,252.61,48.74,252.61,48.61L252.65,44.38C252.65,44.28,252.7,44.23,252.8,44.23L267.16,44.23C267.29,44.23,267.35,44.28,267.35,44.38L267.35,48.61C267.35,48.74,267.3,48.8,267.2,48.8L262.25,48.8L262.29,70.34C262.29,70.47,262.24,70.53,262.14,70.53L257.87,70.53Z" fill-opacity="1" transform="translate(107.92,13.16) translate(-259.98,-57.38)" style="animation: 4s linear both a16_fo;"/>
        <path d="M272.22,70.53C272.12,70.53,272.07,70.47,272.07,70.34L272.07,48.8L267.16,48.8C267.03,48.8,266.97,48.74,266.97,48.61L267.01,44.38C267.01,44.28,267.06,44.23,267.16,44.23L281.52,44.23C281.65,44.23,281.71,44.28,281.71,44.38L281.71,48.61C281.71,48.74,281.66,48.8,281.56,48.8L276.61,48.8L276.65,70.34C276.65,70.47,276.6,70.53,276.5,70.53L272.23,70.53Z" fill-opacity="1" transform="translate(122.28,13.16) translate(-274.34,-57.38)" style="animation: 4s linear both a17_fo;"/>
    </g>
    <path class="c" d="M76.5989,80.9205C76.7953,80.9722,76.9194,81.1842,76.8626,81.3806C74.2261,90.4529,64.8024,95.7929,55.6319,93.3322C46.4613,90.8768,40.9714,81.5408,43.2201,72.3652C43.2667,72.1635,43.4785,72.0447,43.675,72.0964L76.5989,80.9205Z" fill="#e44126" fill-opacity="0" transform="translate(59.7966,83.0079) translate(-59.7966,-83.0079)" style="animation: 4s linear both a18_fo, 4s linear both a18_d;"/>
    <path class="d" d="M71.622,27.8122L91.7294,39.4199C91.8522,39.49,92.01,39.4023,92.01,39.2576L92.01,16.0424C92.01,15.8977,91.8566,15.81,91.7294,15.8801L71.622,27.4878C71.4993,27.558,71.4993,27.7376,71.622,27.8122Z" fill="#144e8b" fill-opacity="0" transform="translate(81.77,27.65) translate(-81.77,-27.65)" style="animation: 4s linear both a19_fo, 4s linear both a19_d;"/>
    <rect class="b" width="24.43" height="24.43" rx="0.43" ry="0.43" fill="#fd0" fill-opacity="0" transform="translate(22.635,27.655) translate(-12.215,-12.215)" style="animation: 4s linear both a20_t, 4s linear both a20_fo, 4s linear both a20_w, 4s linear both a20_h;"/>
</svg>
